SplineFontDB: 3.0
FontName: Experiment-Sinhala
FullName: Experiment-Sinhala
FamilyName: Experiment-Sinhala
Weight: Regular
Copyright: Copyright (c) 2015, Pathum Egodawatta
UComments: "2015-9-29: Created with FontForge (http://fontforge.org)"
Version: 0.001
ItalicAngle: 0
UnderlinePosition: -99
UnderlineWidth: 49
Ascent: 750
Descent: 250
InvalidEm: 0
LayerCount: 4
Layer: 0 0 "Back" 1
Layer: 1 0 "Fore" 0
Layer: 2 0 "Back 3" 1
Layer: 3 0 "s1" 1
PreferredKerning: 4
XUID: [1021 779 -1439063335 14876943]
FSType: 0
OS2Version: 0
OS2_WeightWidthSlopeOnly: 0
OS2_UseTypoMetrics: 1
CreationTime: 1443542790
ModificationTime: 1461371687
PfmFamily: 17
TTFWeight: 400
TTFWidth: 5
LineGap: 122
VLineGap: 0
OS2TypoAscent: 879
OS2TypoAOffset: 0
OS2TypoDescent: -250
OS2TypoDOffset: 0
OS2TypoLinegap: 122
OS2WinAscent: 879
OS2WinAOffset: 0
OS2WinDescent: 49
OS2WinDOffset: 0
HheadAscent: 779
HheadAOffset: 0
HheadDescent: -27
HheadDOffset: 0
OS2CapHeight: 0
OS2XHeight: 0
OS2Vendor: 'PfEd'
Lookup: 4 0 0 "'abvs' Above Base Substitutions in Sinhala lookup 0" { "'abvs' Above Base Substitutions in Sinhala lookup 0-1"  "'abvs' Above Base Substitutions in Sinhala lookup 0-2"  } ['abvs' ('DFLT' <'dflt' > 'sinh' <'dflt' > ) ]
Lookup: 4 0 0 "si_akhands" { "si_akhands subtable"  } ['akhn' ('sinh' <'dflt' > ) ]
Lookup: 4 0 0 "si_reph" { "si_reph subtable"  } ['rphf' ('sinh' <'dflt' > ) ]
Lookup: 4 0 0 "si_halant_1" { "si_halant_1 subtable"  } ['abvs' ('sinh' <'dflt' > ) ]
Lookup: 4 0 0 "si_halant_2" { "si_halant_2 subtable"  } ['abvs' ('sinh' <'dflt' > ) ]
Lookup: 4 0 0 "si_halant_3" { "si_halant_3 subtable"  } ['abvs' ('sinh' <'dflt' > ) ]
Lookup: 4 0 0 "si_abvs_1" { "si_abvs_1 subtable"  } ['abvs' ('sinh' <'dflt' > ) ]
Lookup: 4 0 0 "si_abvs_2" { "si_abvs_2 subtable"  } ['abvs' ('sinh' <'dflt' > ) ]
Lookup: 4 0 0 "si_abvs_3" { "si_abvs_3 subtable"  } ['abvs' ('sinh' <'dflt' > ) ]
Lookup: 4 0 0 "si_abvs_4" { "si_abvs_4 subtable"  } ['abvs' ('sinh' <'dflt' > ) ]

StartChar: si_Tta
Encoding: 34 3495 0
GlifName: si_T_ta
Width: 732
VWidth: -14
Flags: HMW
LayerCount: 4
Back
SplineSet
364.567382812 329 m 1
 341.567382812 338 298.567382812 345 271.567382812 343 c 0
 200.567382812 338 109.567382812 299 109.567382812 197 c 0
 109.567382812 109 206.567382812 49 339.567382812 48 c 0
 534.564453125 46.5341796875 602.567382812 192 606.567382812 317 c 0
 612.567382812 514 503.567382812 654 336.567382812 657 c 4
 210.571289062 659.263671875 111.567382812 583 108.567382812 583 c 5
 80.5673828125 627 l 4
 80.5673828125 627 197.565429688 712.665039062 344.567382812 712 c 4
 565.567382812 711 688.567382812 549 688.567382812 312 c 0
 688.567382812 103 569.567382812 -59 329.567382812 -59 c 0
 146.567382812 -59 44.5673828125 50 44.5673828125 176 c 0
 44.5673828125 321 163.567382812 394 274.567382812 398 c 0
 336.567382812 400 376.567382812 379 376.567382812 379 c 1
 364.567382812 329 l 1
EndSplineSet
Fore
SplineSet
353.442382812 334 m 5
 327.442382812 346 293.442382812 352 260.442382812 350 c 4
 190.369140625 345.8515625 117.5546875 302.787109375 116.442382812 218 c 4
 115.442382812 140.005859375 171.440429688 54.2841796875 334.442382812 55 c 4
 517.44140625 55.8037109375 604.801562286 172.304901038 615.442382812 317 c 0
 631.84403352 540.031529047 505.444335938 659.1953125 358.442382812 662 c 0
 222.456054688 664.594726562 131.442382812 574 128.442382812 574 c 1
 95.4423828125 625 l 0
 144.447265625 663.076171875 231.981445312 712.578125 348.442382812 712 c 0
 569.434570312 710.90234375 691.994102382 546.206455401 691.442382812 312 c 0
 690.983451604 117.182456315 571.442382812 -57 341.442382812 -59 c 4
 148.44921875 -60.677734375 38.5732421875 38.0029296875 35.4423828125 176 c 4
 32.1533989173 320.966632951 154.427734375 394.418945312 265.442382812 398 c 4
 327.442382812 400 367.442382812 379 367.442382812 379 c 5
 353.442382812 334 l 5
EndSplineSet
Layer: 2
SplineSet
374.567382812 272 m 5
 228.567382812 288 125.567382812 252 127.567382812 158 c 4
 128.567382812 94 181.567382812 42 321.567382812 43 c 4
 490.567382812 44 599.264648438 173.225585938 607.567382812 326 c 4
 617.567382812 510 514.263671875 659.0234375 320.567382812 648 c 4
 197.567382812 641 104.567382812 580 101.567382812 580 c 5
 78.5673828125 627 l 5
 118.567382812 651 223.567382812 706 351.567382812 706 c 4
 568.567382812 705 688.567382812 537 678.567382812 321 c 4
 668.669921875 107.228515625 545.567382812 -56 299.567382812 -58 c 4
 163.567382812 -59 44.5673828125 8 44.5673828125 137 c 4
 44.5673828125 291 203.567382812 335 325.567382812 328 c 5
 335.567382812 388 302.567382812 438 210.567382812 438 c 5
 184.567382812 357 l 5
 133.567382812 350 98.5673828125 379 107.567382812 425 c 4
 117.567382812 481 175.567382812 500 222.567382812 500 c 4
 298.567382812 500 381.567382812 469 382.567382812 359 c 4
 382.567382812 323 374.567382812 272 374.567382812 272 c 5
EndSplineSet
Layer: 3
EndChar

StartChar: si_Pa
Encoding: 46 3508 1
GlifName: si_P_a
Width: 776
VWidth: -24
Flags: HMW
AnchorPoint: "si_MaU" 710 158.28 mark 0
AnchorPoint: "si_hal" 639 516 basechar 0
LayerCount: 4
Back
SplineSet
512 352 m 1
 452 332 l 1
 444 357 437 384 437 426 c 0
 438 512 509 556 570 556 c 0
 653 556 705 509 705 429 c 0
 705 351 618 309 618 309 c 1
 602 326 l 1
 625 355 641 384 641 424 c 0
 641 460 612 494 563 494 c 0
 526 494 491 470 491 427 c 0
 491 375 512 352 512 352 c 1
119 209 m 0
 118 124 203 55 388 55 c 4
 553 55 659 127 660 206 c 0
 662 318 549 347 452 332 c 1
 484 383 l 1
 616 395 740 331 736 193 c 0
 731 29 564 -49 383 -49 c 0
 189 -49 38 33 40 180 c 0
 42 339 208 394 316 384 c 1
 282 345 l 1
 289 365 298 386 298 415 c 0
 297 463 239 505 171 490 c 0
 204 511 l 1
 145 405 l 1
 104 407 77 432 78 467 c 0
 80 527 142 557 202 557 c 0
 272 557 344 517 346 439 c 0
 347 402 341 370 332 333 c 1
 208 351 120 287 119 209 c 0
EndSplineSet
Fore
SplineSet
500 352 m 1
 452 333 l 1
 444 358 437 384 437 426 c 0
 438 512 519 556 580 556 c 0
 663 556 715 507 715 427 c 0
 715 349 618 309 618 309 c 1
 602 326 l 1
 636.051288152 347.130311028 650.883587155 377.105818001 651 417 c 0
 651.13422914 462.999749757 617 494 558 494 c 0
 511 494 475 462 475 419 c 0
 475 367 500 352 500 352 c 1
119 209 m 0
 118 124 203 45 388 45 c 0
 563 45 663.451154009 127.008854445 665 216 c 0
 666.775330903 318.004157759 549 348 452 333 c 1
 472 373 l 1
 617 402 740 331 736 193 c 0
 731 29 564 -59 383 -59 c 0
 189 -59 38 33 40 180 c 0
 42 339 208 394 316 384 c 1
 292 345 l 1
 299 365 312.3731417 386.33162663 308 415 c 0
 299 474 239 505 171 490 c 0
 204 511 l 1
 149 409 l 1
 108 411 81.6005478023 436.013695057 83 471 c 0
 85 521 142 557 202 557 c 0
 272 557 344 517 346 439 c 0
 347 402 341 370 332 333 c 1
 208 351 120 287 119 209 c 0
EndSplineSet
Layer: 2
Layer: 3
EndChar

StartChar: si_Va
Encoding: 55 3520 2
GlifName: si_V_a
Width: 760
VWidth: -14
Flags: HMW
AnchorPoint: "si_hal" 490 638 basechar 0
AnchorPoint: "si_MaU" 669 211 basechar 0
LayerCount: 4
Back
SplineSet
376 272 m 1
 230 288 127 252 129 158 c 0
 130 94 203 42 343 43 c 0
 512 44 609 173 609 326 c 0
 609 510 506 650 312 648 c 0
 199 647 96 585 93 585 c 1
 70 632 l 1
 110 656 215 706 343 706 c 0
 560 705 680 537 680 321 c 0
 680 107 567 -56 321 -58 c 0
 185 -59 46 8 46 137 c 0
 46 291 205 335 327 328 c 1
 337 388 304 438 212 438 c 1
 186 357 l 1
 135 350 100 379 109 425 c 0
 119 481 177 500 224 500 c 0
 300 500 383 469 384 359 c 0
 384 323 376 272 376 272 c 1
EndSplineSet
Fore
SplineSet
396 284 m 1
 260.503597122 301.379310345 133.466247874 252.459206919 138 158 c 0
 141.068944452 94.0595703125 229.272706155 55.0923462084 375 56 c 0
 548.999747213 57.0837470876 647 180.395604396 647 339 c 0
 647 545.866666667 545.308797622 660.688501025 332 658 c 0
 214.83622732 656.474874788 132.155440415 590 129 590 c 1
 97 640 l 1
 137.618257261 667 214.690694122 712.690734726 348 712 c 0
 541.403042522 711.025575448 710 580.452685422 710 331 c 0
 710 111.353562005 601.004237086 -56.7621613724 365 -58 c 0
 183.82072172 -59.0419921875 59.1461249201 8.03433236137 56 137 c 0
 52.243902439 299.324324324 249.43902439 339.378378378 364 332 c 1
 364 402 314 438 222 438 c 1
 196 357 l 1
 145 350 110.76031191 378.857746694 119 425 c 0
 129 481 187 500 234 500 c 0
 310 500 399.99945787 462.999979147 404 359 c 0
 405.383789062 323.026367188 396 284 396 284 c 1
EndSplineSet
Layer: 2
Layer: 3
EndChar

StartChar: si_Ra
Encoding: 53 3515 4
GlifName: si_R_a
Width: 713
VWidth: -5
Flags: HMW
LayerCount: 4
Back
SplineSet
572 802 m 1
 572 710 479 648 367 574 c 0
 269 516 138 408 138 258 c 0
 138 131 217 53 346 53 c 0
 476 53 548 130 549 251 c 0
 550 382 450 451 346 451 c 0
 227 451 161 366 161 366 c 1
 197 450 l 0
 196 453 252 511 364 513 c 0
 470 514 626 446 626 250 c 0
 626 82 528 -44 347 -44 c 0
 156 -44 62 85 62 252 c 0
 62 531 375 624 453 726 c 1
 503 834 l 1
 553 843 572 823 572 802 c 1
EndSplineSet
Fore
SplineSet
573 785 m 1
 573 707.080078125 506.435546875 660.377929688 398 594 c 0
 270 516 125 415 125 245 c 0
 125 138 214 48 360 48 c 0
 508.439453125 48 582.853515625 153 586 252 c 0
 590.389648438 389.393554688 492.021484375 476 367 476 c 0
 208.249023438 476 137 339 137 339 c 1
 165 428 l 0
 164 431 253.985351562 531.200195312 386 532 c 0
 536.497072311 532.911779604 668.461914062 424.852539062 665 245 c 0
 661.881835938 83.00390625 550.1171875 -52 356 -52 c 0
 153 -52 47.3366726873 93.98512553 55 252 c 0
 67.9033203125 518.061523438 376 604 474 736 c 1
 514 834 l 1
 556.75390625 835.307617188 573 811.384765625 573 785 c 1
EndSplineSet
Layer: 2
Layer: 3
EndChar

StartChar: si_Ca
Encoding: 27 3488 5
GlifName: si_C_a
Width: 804
VWidth: -14
Flags: HMW
LayerCount: 4
Back
SplineSet
54 322 m 1
 425 322 l 1
 425 264 l 1
 137 264 l 1
 53 252 l 1
 54 322 l 1
355 266 m 1
 364 317 l 1
 358 359 l 1
 358 359 351 420 245 420 c 0
 218 348 l 1
 189 333 150 352 156 404 c 0
 162 464 223 480 280 479 c 0
 421 478 435 362 435 362 c 0
 425 264 l 1
 355 266 l 1
308 269 m 1
 306 269 171 247 170 173 c 0
 169 93 244 58 368 57 c 0
 544 56 597 200 597 336 c 0
 597 513 513 639 370 640 c 0
 230 641 128 568 125 568 c 1
 100 614 l 0
 139 635 249 695 377 695 c 0
 577 694 676 538 676 331 c 0
 676 113 578 -37 359 -37 c 0
 179 -37 96 43 96 132 c 0
 96 204 142 251 197 268 c 1
 308 269 l 1
EndSplineSet
Fore
SplineSet
14 327 m 5
 445 333 l 5
 440 283 l 5
 117 283 l 5
 13 271 l 5
 14 327 l 5
EndSplineSet
Refer: 2 3520 N 1 0 0 1 44 0 2
Layer: 2
SplineSet
361.2265625 290.141601562 m 5
 353.536132812 372.172851562 l 5
 353.536132812 372.172851562 330.46484375 416.264648438 245.357421875 416.264648438 c 4
 239.205078125 356.279296875 l 5
 169.991210938 355.25390625 l 5
 162.813476562 365.5078125 158.19921875 392.680664062 158.19921875 409.599609375 c 4
 158.19921875 459.84375 216.133789062 479.326171875 263.301757812 479.326171875 c 4
 354.561523438 479.326171875 429.415039062 437.28515625 437.618164062 328.081054688 c 4
 434.541992188 225.029296875 l 5
 361.2265625 290.141601562 l 5
434.541992188 225.029296875 m 5
 433.516601562 225.029296875 398.653320312 225.541992188 355.586914062 225.541992188 c 4
 279.561523438 225.541992188 178.194335938 217.26953125 178.194335938 152.739257812 c 5
 180.30078125 117.782226562 231.788085938 54.419921875 373.53125 53.2763671875 c 4
 523.75 52.064453125 590.9140625 170.841796875 590.9140625 336.284179688 c 5
 590.9140625 521.017578125 524.776367188 628.779296875 355.586914062 636.2109375 c 5
 268.428710938 632.109375 118.208984375 569.047851562 115.1328125 569.047851562 c 5
 98.7265625 610.576171875 l 4
 136.153320312 637.236328125 266.377929688 696.196289062 356.612304688 695.68359375 c 4
 566.817382812 694.658203125 672.9453125 548.540039062 672.9453125 331.157226562 c 4
 672.9453125 112.749023438 585.787109375 -37.470703125 369.4296875 -37.470703125 c 4
 213.057617188 -37.470703125 99.751953125 25.078125 99.751953125 147.099609375 c 4
 99.751953125 277.32421875 247.408203125 289.116210938 247.408203125 289.116210938 c 5
 361.2265625 292.192382812 l 5
 434.541992188 225.029296875 l 5
EndSplineSet
Layer: 3
EndChar

StartChar: si_Sa
Encoding: 58 3523 6
GlifName: si_S_a
Width: 915
VWidth: -24
Flags: HW
HStem: -45 119<242.897 400.075 580.827 737.773> 322 47<49 93.7692 580 731.72> 335 12<210 291.778>
VStem: 121 62<127.684 244.94> 165 286<429 518> 476 35<147.885 214> 760 70<371.635 470.961> 791 64<124.733 268.005>
AnchorPoint: "si_MaU" 864 185.28 basechar 0
AnchorPoint: "si_MaI" 494 559 basechar 0
AnchorPoint: "si_hal" 746 536 basechar 0
LayerCount: 4
Back
SplineSet
69 375 m 1
 445 383 l 1
 447 332 l 1
 153 325 l 1
 68 312 l 1
 69 375 l 1
597 363 m 1
 586 381 l 1
 682 407 855 371 855 186 c 0
 855 64 774 -35 649 -35 c 0
 524 -35 481 61 466 126 c 1
 464 123 513 129 511 126 c 1
 484 25 421 -34 320 -34 c 0
 184 -35 132 55 134 154 c 0
 136 274 215 336 247 337 c 1
 318 334 l 1
 253 321 206 267 206 183 c 0
 206 103 262 68 330 69 c 0
 390 70 465 91 465 215 c 1
 524 215 l 1
 520 91 587 64 657 64 c 0
 751 64 783 129 784 195 c 0
 785 281 709 367 542 332 c 1
 537 351 532 368 532 388 c 0
 530 500 613 557 687 557 c 0
 754 557 820 522 820 442 c 0
 820 346 737 320 737 320 c 1
 721 327 l 1
 721 327 759 381 760 430 c 0
 760 468 742 500 683 501 c 0
 637 502 598 473 593 421 c 0
 589 375 604 347 604 347 c 1
 597 363 l 1
406 350 m 1
 409 384 411 413 399 441 c 0
 385 476 340 498 290 493 c 0
 239 409 l 1
 209 412 175 429 175 466 c 0
 175 533 255 558 302 558 c 0
 382 558 441 524 455 439 c 0
 463 385 454 353 447 333 c 1
 406 350 l 1
EndSplineSet
Fore
SplineSet
39 379 m 1xc4
 417 381 l 1
 419 336 l 1
 123 335 l 1xa4
 38 322 l 1
 39 379 l 1xc4
547 373 m 1
 580 384 l 1
 679.491210938 410.330078125 865 380.840820312 865 186 c 0
 865 64 790.377929688 -45 659 -45 c 4
 554 -45 487 22 472 126 c 5
 470 123 509 129 507 126 c 5
 489.119140625 25 420.748046875 -43.1982421875 304 -44 c 4
 171.470703125 -44.91015625 99.1728515625 54.9951171875 101 154 c 0
 103.165039062 268 197.35546875 346 232 347 c 1
 326 338 l 1
 239.861328125 324.103515625 161.854492188 266.251953125 163 183 c 0
 163.899414062 112.950195312 215.522286828 64.8459850735 304 62 c 4
 371.15625 59.83984375 469 88.2900390625 472 214 c 5
 507 215 l 5
 510 100.411132812 583.994140625 64.4326171875 664 64 c 4
 743.806640625 63.599609375 799.400390625 113.7890625 801 195 c 0xb5
 803.384765625 310.975585938 705.305664062 383.813476562 542 328 c 1
 537 350.166992188 532.391601562 374.670898438 532 398 c 0
 530 500 603 568 687 570 c 0
 753.981445312 571.594726562 830 532 830 452 c 0
 830 356 737 330 737 330 c 1
 721 337 l 1
 721 337 760 374.990234375 760 424 c 0xa6
 760 465 719.879882812 513.047851562 656 509 c 0
 619.995117188 506.71875 577 472 572 411 c 0
 568.227539062 364.98046875 588 353 588 353 c 1
 547 373 l 1
388 364 m 1
 391 398 391 417 379 445 c 0
 365 480 310 508 260 503 c 0
 209 419 l 1
 179 422 155 439 155 476 c 0
 155 543 227 568 280 568 c 0
 360 568 433.292681415 518.050987214 436 433 c 0x8c
 437.56640625 383.791015625 428 358.083007812 419 337 c 1
 388 364 l 1
EndSplineSet
Layer: 2
Layer: 3
EndChar

StartChar: si_Ka
Encoding: 21 3482 7
GlifName: si_K_a
Width: 1085
VWidth: -24
Flags: HMW
AnchorPoint: "si_hal" 873 494 basechar 0
LayerCount: 4
Back
SplineSet
288 377 m 5x30
 300 400 304 421 303 439 c 4
 301 481 264.760742188 505.678710938 215 501 c 4
 180.934570312 497.796875 145 470 151 426 c 5
 191 371 l 5
 177 347 154.001953125 335.022460938 132 336 c 4
 87 338 67 369 67 415 c 4
 67 495 133.983398438 563.181640625 231 559 c 4
 313.926757812 555.42578125 363 480 336 416 c 4
 321 380 336 404 323 387 c 5
 288 377 l 5x30
310 408 m 5
 320 417 320 407 332 415 c 5
 419 493 556.004882812 560.463867188 695 562 c 4
 876 564 1033 438 1035 245 c 4
 1037 73 946 -35 803 -33 c 4
 764.990234375 -32.46875 734 -22 719 -15 c 5
 730 39 l 5
 754 27 795.981445312 20.23046875 820 22 c 4
 915 29 966.448242188 116.266601562 958 223 c 4
 945.975585938 374.922851562 826 459 665 459 c 4
 572 459 437 442 338 353 c 5
 325 350 l 5
 310 408 l 5
55 112 m 5
 117.96484375 225.337890625 217 331 330 419 c 5
 337 364 l 4
 331 359 325 349 319 344 c 5
 214 255 130 159 91 92 c 5
 91 92 65 103 55 112 c 5
132 175 m 5
 140 179 149 182 156 182 c 4
 204 183 218 74 301 74 c 4
 340 74 400 101 401 197 c 5
 436 197 l 4
 437 94 507 73 557 74 c 4
 607 75 652 118 652 194 c 4
 652 273 576 345 452 345 c 4
 390 345 314 329 281 311 c 5
 335 364 l 5
 348 368 392.99609375 391.383789062 470 392 c 4
 595 393 725 328 725 178 c 4
 725 44 652 -34 547 -34 c 4
 443 -34 419 39 419 39 c 5
 419 39 395 -33 292 -33 c 4
 134 -34 175 189 120 140 c 4
 132 175 l 5
EndSplineSet
Fore
SplineSet
808 17 m 0xb0
 917.836914062 20.0703125 941.119730629 174.231152836 915 279 c 0
 885.174804688 398.631835938 760.228515625 466.868164062 625 462 c 0
 525.9140625 458.697265625 448.959960938 431.771484375 355 374 c 1
 338 362 349 367 335 355 c 1
 238 276 156 211 56 79 c 1
 56 79 21.126953125 98.5439453125 27 107 c 0
 127 251 217 322 315 413 c 1
 322 419 331 420 338 425 c 1
 435.860351562 505 556.172851562 555.573242188 672 561 c 0
 861.928710938 570.465820312 1001 450 1015 282 c 0
 1028.55566406 112.560546875 937.639648438 -33 785 -33 c 0
 732.145507812 -33 699 -15 699 -15 c 1
 719 46 l 1
 719 46 750.759765625 14.99609375 808 17 c 0xb0
288 377 m 1x30
 300 400 304 421 303 439 c 0
 301 481 264.760742188 505.678710938 215 501 c 0
 180.934570312 497.796875 145 470 151 426 c 1
 191 371 l 1
 177 347 154.001953125 335.022460938 132 336 c 0
 87 338 67 369 67 415 c 0
 67 495 133.983398438 563.181640625 231 559 c 0
 313.926757812 555.42578125 363 480 336 416 c 0
 321 380 336 404 323 387 c 1
 288 377 l 1x30
107 165 m 1
 115 169 124 172 131 172 c 0
 179 173 188 72 271 72 c 0
 320 72 370 101 371 197 c 1
 406 197 l 0
 407 94 466.997454367 71.1666228257 527 72 c 0
 587.003054614 72.8333842436 638 118 638 194 c 0
 638 273 566 340 452 345 c 0
 390.059547834 347.716686498 314 329 281 311 c 1
 335 364 l 1
 348 368 381.99609375 390.330078125 459 391 c 0
 574 392 696 332 696 182 c 0
 696 48 620.994671777 -34.9422200604 516 -36 c 0
 430.693480131 -36.8594295683 397.721679688 8.326171875 379 49 c 1
 397 49 l 1
 379.737304688 7.81640625 336.954248144 -36 272 -36 c 0
 113.996835475 -36 160 169 95 130 c 0
 107 165 l 1
EndSplineSet
Layer: 2
SplineSet
49.326171875 67.880859375 m 4
 159.326171875 281.57421875 403.939453125 524.341796875 626.62109375 533.0859375 c 4
 781.192382812 539.15625 925.725585938 463.5625 940.004882812 265.268554688 c 4
 948.497070312 124.8046875 897.6171875 -34.4140625 746.591796875 -34.8349609375 c 4
 711.2109375 -34.93359375 684.04296875 -23.37890625 684.04296875 -23.37890625 c 5
 695.322265625 29.4287109375 l 5
 695.322265625 29.4287109375 713.873046875 21.8466796875 739.412109375 21.806640625 c 4
 825.055664062 21.6630859375 868.763671875 102.141601562 864.553710938 211.435546875 c 4
 859.166015625 351.30078125 768.966796875 431.989257812 633.798828125 441.000976562 c 4
 544.961914062 447.6640625 456.952148438 415.846679688 376.42578125 365.911132812 c 5
 245.13671875 271.62109375 137.274414062 117.798828125 90.8544921875 37.119140625 c 5
 90.8544921875 37.119140625 44.4423828125 58.3955078125 49.326171875 67.880859375 c 4
141.098632812 125.302734375 m 5
 229.37109375 136.614257812 205.497070312 68.2265625 290.805664062 67.880859375 c 4
 329.783203125 67.72265625 381.271484375 94.3310546875 382.065429688 189.537109375 c 5
 435.8984375 189.389648438 l 4
 437.41796875 86.7236328125 496.942382812 67.1943359375 531.772460938 67.880859375 c 4
 592.311523438 69.07421875 612.265625 108.717773438 612.265625 174.521484375 c 4
 612.265625 258.342773438 545.046875 335.881835938 415.903320312 336.8125 c 4
 374.630859375 337.111328125 349.022460938 332.555664062 316.953125 320.126953125 c 5
 374.375 373.447265625 l 5
 387.348632812 377.874023438 403.5078125 385.955078125 434.360351562 386.822265625 c 4
 539.364257812 389.775390625 688.14453125 341.606445312 688.14453125 166.318359375 c 4
 688.14453125 46.3330078125 639.326171875 -34.4091796875 533.823242188 -34.830078125 c 4
 419.723632812 -35.283203125 412.314453125 53.525390625 412.314453125 53.525390625 c 5
 412.314453125 53.525390625 390.747070312 -33.6240234375 288.2421875 -34.02734375 c 4
 139.338867188 -34.615234375 171.34765625 130.942382812 115.9765625 77.109375 c 4
 141.098632812 125.302734375 l 5
262.607421875 343.198242188 m 5
 311.935546875 386.706054688 298.552734375 475.928710938 216.46484375 475.555664062 c 4
 178.796875 475.383789062 147.247070312 443.416015625 148.7890625 409.3359375 c 5
 193.90625 333.45703125 l 4
 136.484375 303.073242188 l 4
 103.538085938 307.661132812 58.951171875 329.982421875 55.478515625 387.745117188 c 4
 50.6318359375 468.33984375 127.56640625 534.123046875 215.439453125 536.939453125 c 4
 347.852539062 541.184570312 376.092773438 430.3125 345.266601562 380.625 c 4
 320.954101562 341.435546875 337.93359375 359.189453125 300.034179688 327.3046875 c 5
 262.607421875 343.198242188 l 5
EndSplineSet
Layer: 3
EndChar

StartChar: uni0061
Encoding: 542 97 8
GlifName: uni0061
Width: 626
VWidth: 153
Flags: W
HStem: -13 74<213.748 329.875> 10 39<565.076 605>
VStem: 55 126<92.3691 210.483> 98 88<401 503.572>
LayerCount: 4
Back
SplineSet
55 125 m 0
 55 226 125 296 280 331 c 0
 372 352 446 356 446 356 c 1
 446 273 l 1
 446 273 382 299 305 288 c 0
 228 277 183 218 181 160 c 0
 179 96 216.876403087 62.3764722148 274 61 c 0
 357 59 414 118 420 159 c 1
 448 119 l 1
 448 119 398 -13 218 -13 c 0
 127 -13 55 32 55 125 c 0
95 539 m 1
 144 566 250 611 349 611 c 0
 485 611 529 575 532 443 c 0
 534 365 517 172 534 101 c 0
 543 63 563 44 605 49 c 1
 616 10 l 1
 595 2 540 -28 482 -10 c 0
 438 4 429 50 423 109 c 1
 413 109 l 1
 425 198 428 399 414 457 c 0
 393 546 332 561 287 553 c 0
 229 542 205 507 174 474 c 1
 230 557 l 1
 209 512 192 469 186 401 c 1
 98 392 l 1
 92 459 95 539 95 539 c 1
EndSplineSet
Fore
SplineSet
55 125 m 0xa0
 55 226 125 296 280 331 c 0
 372 352 446 356 446 356 c 1
 446 273 l 1
 446 273 382 299 305 288 c 0
 228 277 183 218 181 160 c 0
 179 96 216.876403087 62.3764722148 274 61 c 0
 357 59 414 118 420 159 c 1
 448 119 l 1
 448 119 398 -13 218 -13 c 0
 127 -13 55 32 55 125 c 0xa0
95 539 m 1
 144 566 250 611 349 611 c 0
 485 611 529 575 532 443 c 0
 534 365 517 172 534 101 c 0
 543 63 563 44 605 49 c 1
 616 10 l 1
 595 2 540 -28 482 -10 c 0
 438 4 429 50 423 109 c 1
 413 109 l 1
 425 198 428 399 414 457 c 0
 393 546 332 561 287 553 c 0
 229 542 205 507 174 474 c 1
 230 557 l 1
 209 512 192 469 186 401 c 1
 98 392 l 1x50
 92 459 95 539 95 539 c 1
EndSplineSet
Layer: 2
Layer: 3
EndChar

StartChar: si_Ta
Encoding: 40 3501 9
GlifName: si_T_a
Width: 1055
VWidth: -24
Flags: HW
HStem: -44 39<667.022 821.68> -41 113<281.211 510.25> 353 40<352.055 523.918> 468 93<521.638 724.167>
AnchorPoint: "si_hal" 803 516 basechar 0
LayerCount: 4
Back
SplineSet
264 366 m 1
 276 389 280 410 279 428 c 0
 277 470 242.848371434 495.622579221 203 492 c 0
 159 488 129 445 125 411 c 1
 155 356 l 1
 141 332 118 320 96 321 c 0
 71 323 48 344 48 390 c 0
 48 460 104.987915524 552.189023161 212 551 c 0
 302 550 344 468 317 404 c 0
 302 368 317 392 304 375 c 1
 264 366 l 1
771 11 m 0
 889 14 938.502929688 137.25390625 925 258 c 0
 910.423828125 388.341796875 786 461 635 460 c 0
 530.997070312 459.311523438 449 443 342 367 c 1
 325 355 336 360 322 348 c 1
 225 269 176 231 86 89 c 1
 86 89 45 110 50 119 c 0
 120 233 204 315 302 406 c 1
 309 412 318 419 325 424 c 1
 426 507 539.997910809 560.321041636 669 561 c 0
 859 562 994 449 1008 281 c 0
 1022.12011719 111.560546875 911 -38 762 -38 c 0
 703 -38 671 -20 671 -20 c 1
 687 28 l 1
 687 28 716.98046875 9.626953125 771 11 c 0
126 172 m 1
 227 224 210 65 410 62 c 0
 542 60 608 124 610 195 c 0
 613 308 520 343 427 346 c 0
 345 349 284 319 251 301 c 1
 303 365 l 1
 316 369 389 394 451 393 c 0
 561 391 681 343 671 173 c 0
 665 68 598 -41 410 -41 c 0
 157 -41 173 192 114 134 c 1
 126 172 l 1
EndSplineSet
Fore
SplineSet
278 378 m 5x30
 290 401 293.787783325 421.989464266 293 440 c 4
 290.886363636 488.322580645 241.93962346 510.586375919 200 501 c 4
 168.616836205 493.826573516 143.75 469.586666667 140 425 c 5
 180 370 l 5
 166 346 142.997501905 333.926951127 121 335 c 4
 80 337 56 368 56 414 c 4
 56 494 122.979251728 562.084299408 220 558 c 4
 303.716536458 554.475770323 353.257142857 480.104895105 326 417 c 4
 310.535503801 381.197076135 326 405 313 388 c 5
 278 378 l 5x30
758 8 m 0xb0
 896 11.0563909774 932.971077712 168.603876214 905 279 c 0
 872.266713537 408.191587876 734.730397156 467.030103921 595 462 c 0
 503.25390625 458.697265625 432 431.771484375 345 374 c 1
 328 362 339 367 325 355 c 1
 228 276 176 211 76 79 c 1
 76 79 41.1274838429 98.5435767337 47 107 c 0
 147 251 207 322 305 413 c 1
 312 419 321 420 328 425 c 1
 420 505 533.100744455 555.722115121 642 561 c 0
 837.309291619 570.465812707 990.441044806 449.986008142 1005 282 c 0
 1019.68492188 112.560546875 910.36 -43 745 -43 c 0
 670.46875 -43 640 -22 640 -22 c 1
 664 40 l 1
 664 40 697.518508566 6.6604704006 758 8 c 0xb0
106 142 m 1
 121.827148438 148.801757812 135.977550224 157.058312459 149 157.575195312 c 0
 235.53125 161.009765625 244.237288627 64.6337427573 412 62 c 0
 543.998046875 59.927734375 621.387481149 124.006832269 620 205 c 0
 617.891601562 328.076171875 483.087890614 345.886713627 432 346 c 0
 350.086914062 346.181640625 292 328 259 310 c 1
 296 362 l 1
 309 366 372.00390625 395.240234375 444 394 c 0
 544.005160872 392.277269894 679 345 679 195 c 0
 679 89.8291015625 610 -44 412 -44 c 0x70
 282.072265625 -44 203.452828836 7.71405288191 187 67.9970703125 c 0
 171.305664062 125.500976562 129.395507812 127.443359375 84 104 c 1
 106 142 l 1
EndSplineSet
Layer: 2
SplineSet
247.826171875 365.756835938 m 5
 284.606445312 440.026367188 243.995117188 496.55859375 201.68359375 497.6015625 c 4
 158.612304688 498.662109375 133.166992188 465.461914062 128.880859375 431.381835938 c 5
 158.6171875 376.010742188 l 5
 144.875 352.084960938 121.26953125 339.463867188 99.6572265625 340.846679688 c 4
 73.9462890625 342.491210938 51.056640625 363.958007812 50.951171875 409.791015625 c 4
 50.7890625 480.055664062 104.263671875 565.857421875 216.0390625 558.985351562 c 4
 303.006835938 553.638671875 331.68359375 473.038085938 304.228515625 408.823242188 c 4
 289.037109375 373.291992188 300.887695312 391.560546875 287.81640625 374.985351562 c 5
 247.826171875 365.756835938 l 5
650.8046875 -22.5302734375 m 13
 664.133789062 34.111328125 l 4
 673.158203125 34.099609375 692.454101562 26.2783203125 721.043945312 26.2783203125 c 4
 828.709960938 26.2783203125 872.337890625 139.078125 871.305664062 238.608398438 c 4
 869.853515625 378.5703125 750.03125 462.880859375 620.04296875 464.584960938 c 4
 515.595703125 465.955078125 428.328125 437.892578125 342.674804688 382.830078125 c 5
 211.385742188 288.540039062 159.407226562 235.71875 56.5908203125 73.0078125 c 5
 56.5908203125 73.0078125 14.9287109375 94.48828125 20.189453125 103.76953125 c 4
 85.23828125 218.547851562 184.014648438 315.069335938 282.176757812 406.313476562 c 5
 289.81640625 412.305664062 297.509765625 418.155273438 305.248046875 423.856445312 c 5
 390.520507812 496.668945312 514.975585938 555.073242188 628.24609375 556.157226562 c 4
 798.30859375 557.784179688 958.811523438 460.306640625 962.137695312 271.93359375 c 4
 965.504882812 81.2705078125 854.120117188 -24.0751953125 724.120117188 -31.71484375 c 4
 683.104492188 -34.125 658.315429688 -22.5107421875 650.8046875 -22.5302734375 c 13
152.977539062 228.354492188 m 5
 140.852539062 101.243164062 257.12109375 60.1318359375 369.84765625 57.626953125 c 4
 532.9140625 54.0029296875 583.4296875 113.750976562 583.641601562 200.668945312 c 4
 583.879882812 299.25 495.337890625 339.16015625 402.147460938 343.477539062 c 4
 330.133789062 346.815429688 258.362304688 318.712890625 226.29296875 301.157226562 c 5
 283.71484375 365.244140625 l 5
 296.688476562 369.670898438 369.370117188 394.450195312 430.858398438 393.487304688 c 4
 541.220703125 391.759765625 681.171875 347.966796875 670.799804688 178.110351562 c 4
 664.412109375 73.5126953125 595.322265625 -40.947265625 356.517578125 -40.982421875 c 4
 205.581054688 -41.00390625 92.37890625 57.7041015625 120.677734375 189.90234375 c 5
 152.977539062 228.354492188 l 5
EndSplineSet
Layer: 3
EndChar

StartChar: si_Na
Encoding: 44 3505 10
GlifName: si_N_a
Width: 1020
VWidth: -24
Flags: HMW
AnchorPoint: "si_hal" 788 502 basechar 0
LayerCount: 4
Back
SplineSet
328 377 m 1x30
 340 400 344 421 343 439 c 0
 341 481 304.760742188 505.678710938 255 501 c 0
 220.934570312 497.796875 185 470 191 426 c 1
 231 371 l 1
 217 347 194.001953125 335.022460938 172 336 c 0
 127 338 107 369 107 415 c 0
 107 495 173.983398438 563.181640625 271 559 c 0
 353.926757812 555.42578125 403 480 376 416 c 0
 361 380 376 404 363 387 c 1
 328 377 l 1x30
104 257 m 0
 166 188 261 316 339 408 c 1
 349 417 349 407 361 415 c 1
 449 507 552 561 665 561 c 0
 835 561 982 448 980 255 c 0
 978 101 888.002929688 -40 704 -40 c 0
 630 -40 602 -11 602 -8 c 0
 627 42 l 0
 648 27 661.998046875 10.974609375 716 12 c 0
 833.073242188 14.2236328125 901 133 900 243 c 0
 899 381 784 468 624 464 c 0xae
 541.01953125 461.92578125 467 442 368 353 c 1
 355 350 l 1
 277 259 193 154 89 201 c 1
 104 257 l 0
102 274 m 1
 99 105 253.014203876 70.3790950543 354 68 c 0
 464.982216234 65.3854021864 592 119 592 221 c 0
 592 285 546 331 453 337 c 0
 386 341 330 319 288 292 c 1
 318 346 l 1
 331 350 383 387 465 387 c 0
 565 387 654 329 654 210 c 0
 654 105 582 -35 352 -35 c 0x4e
 175 -35 53 99 55 267 c 1
 102 274 l 1
EndSplineSet
Fore
SplineSet
328 370 m 1
 340 393 343.738612693 413.987380776 343 432 c 0
 341 477.387096774 304.836674275 503.360651455 255 499 c 0
 220.934570312 495.796875 185 468 191 424 c 1
 231 369 l 1
 217 345 194.001938688 333.022136058 172 334 c 0
 127 336 107 367 107 413 c 0
 107 493 173.996409681 561.473316685 271 557 c 0
 353.926757812 553.300808567 404.31590554 474.737317961 376 409 c 0
 361 373 376 397 363 380 c 1
 328 370 l 1
87 212 m 0
 153.485106383 133.40397351 255.357446809 279.205298013 339 384 c 1
 349 393 349 383 361 391 c 1
 451.894736842 498.123287671 558.282894737 561 675 561 c 0
 845 561 992.62263593 442.822762444 990 241 c 0
 988 88.5661016949 887.626989838 -51 714 -51 c 0
 654.926120448 -51 607 -29.25 607 -27 c 0
 635 41 l 0
 657.261807696 21 688.473350865 -0.42737481335 746 1 c 0
 850.33998115 3.54310470185 910.646837068 120.426436595 910 229 c 0
 909 375.742081448 793.997228701 468.342013146 634 464 c 0
 547.77810669 461.47730152 470.8671875 437.243243243 368 329 c 1
 355 326 l 1
 276.706766918 222.174496644 192.390977443 102.375838926 88 156 c 1
 87 212 l 0
93 229 m 1
 89.8928571429 85.432038835 249.414404568 56.4639016811 354 54 c 0
 464.982216234 51.3854021864 592 105 592 207 c 0
 592 265.482758621 546.00044813 307.44773444 453 313 c 0
 386 317 330 295 288 268 c 1
 318 322 l 1
 331 326 383 363 465 363 c 0
 565 363 654 308.276836158 654 196 c 0
 654 91 582 -49 352 -49 c 0
 169.636363636 -49 43.9393939394 71.2450331126 46 222 c 1
 93 229 l 1
EndSplineSet
Layer: 2
SplineSet
25.7060546875 83.3212890625 m 0
 135.70703125 297.014648438 354.685546875 541.3203125 592.747070312 550.064453125 c 0
 747.333007812 555.743164062 909.002929688 475.564453125 926.126953125 277.120117188 c 0
 938.224609375 136.918945312 853.490234375 -32.3037109375 702.463867188 -32.724609375 c 0
 667.083984375 -32.8232421875 650.168945312 -21.2685546875 650.168945312 -21.2685546875 c 1
 666.575195312 26.412109375 l 1
 666.575195312 26.412109375 674.873046875 18.8330078125 700.412109375 18.7900390625 c 0
 786.055664062 18.646484375 846.682617188 119.120117188 840.421875 228.4140625 c 0
 832.416015625 368.154296875 719.6328125 447.84765625 594.797851562 452.852539062 c 0
 505.783203125 456.421875 428.206054688 437.952148438 347.678710938 388.016601562 c 1
 216.390625 293.7265625 113.655273438 133.239257812 67.234375 52.5595703125 c 1
 67.234375 52.5595703125 20.8232421875 73.8359375 25.7060546875 83.3212890625 c 0
174.387695312 214.571289062 m 1
 144.741210938 169.486328125 171.624023438 68.28515625 262.05859375 67.9404296875 c 0
 301.037109375 67.7919921875 352.525390625 94.390625 353.318359375 189.596679688 c 1
 407.151367188 189.44921875 l 0
 408.671875 86.783203125 468.197265625 67.1904296875 503.025390625 67.9404296875 c 0
 558.4375 69.1337890625 592.747070312 124.158203125 592.747070312 184.834960938 c 0
 592.747070312 299.41796875 506.049804688 343.943359375 382.029296875 343.537109375 c 0
 320.25 343.3359375 284.387695312 323.899414062 252.317382812 306.34375 c 1
 309.739257812 369.91796875 l 1
 322.713867188 374.344726562 359.508789062 385.482421875 390.232421875 388.419921875 c 0
 474.729492188 396.5 660.935546875 373.965820312 660.935546875 167.916015625 c 0
 660.935546875 53.0576171875 605.965820312 -34.349609375 500.461914062 -34.7705078125 c 0
 386.36328125 -35.2236328125 383.567382812 53.5849609375 383.567382812 53.5849609375 c 1
 383.567382812 53.5849609375 362.000976562 -33.5771484375 259.495117188 -33.9677734375 c 0
 105.465820312 -34.5556640625 104.661132812 125.875 126.194335938 164.327148438 c 0
 174.387695312 214.571289062 l 1
256.931640625 381.197265625 m 1
 293.712890625 455.466796875 240.236328125 494.984375 187.717773438 492.534179688 c 0
 162.075195312 491.3359375 124.328125 470.6484375 120.041992188 436.568359375 c 1
 149.778320312 376.0703125 l 0
 128.487304688 339.00390625 93.47265625 333.344726562 66.7216796875 345.686523438 c 0
 66.7216796875 345.686523438 37.107421875 362.216796875 36.9853515625 414.977539062 c 0
 36.82421875 485.2421875 90.0283203125 553.598632812 186.692382812 553.91796875 c 0
 273.637695312 554.205078125 317.71875 503.859375 321.025390625 444.771484375 c 0
 323.184570312 406.189453125 302.303710938 391.620117188 289.231445312 375.044921875 c 1
 256.931640625 381.197265625 l 1
EndSplineSet
Layer: 3
EndChar

StartChar: anusvara
Encoding: 1 3458 11
GlifName: anusvara
Width: 588
VWidth: 0
Flags: HW
LayerCount: 4
Back
Fore
SplineSet
120 225 m 0
 120 135 165.049804688 67.998046875 283 67 c 0
 373.046875 66.23828125 438.099609375 143.999023438 439 224 c 4
 440.125 323.993164062 371 393 264 387 c 0
 194.109375 383.081054688 120 318 120 225 c 0
55 194 m 0
 55 345 173 443 294 443 c 0
 445 443 523 335 523 214 c 0
 523 93 436 -25 285 -25 c 0
 134 -25 55 73 55 194 c 0
EndSplineSet
Layer: 2
Layer: 3
EndChar

StartChar: si_A
Encoding: 3 3461 13
GlifName: si_A_
Width: 758
VWidth: -17
Flags: HW
HStem: -51.5381 48.3555<277.352 502.535>
VStem: 506 50<295 497.957> 566 28<482.823 498.856> 612 84<343.089 450.968>
AnchorPoint: "si_hal" 412 492 basechar 0
LayerCount: 4
Back
Fore
SplineSet
364 -57.5380859375 m 0
 153.625 -57.1875 52.4326171875 37.0244140625 54 157 c 0
 55.8642578125 305.000976562 183.197265625 381 323 383 c 0
 356.912109375 383.546875 385.2578125 381.401367188 402.384765625 378.52734375 c 1
 403.505859375 468.180664062 340.708007812 504.435546875 271 497 c 1
 215 408 l 1
 169 411 141 448 150 484 c 0
 166 546 225 567 288 567 c 0
 360 567 432 527 446 443 c 0
 455.095703125 388.426757812 439 334 439 334 c 1
 329.883789062 352.869140625 188.782226562 312.513671875 175 179 c 0
 164.526367188 81.240234375 240.35546875 4.236328125 408 4.8173828125 c 0
 529.96875 5.240234375 602.526367188 50.912109375 665 88.599609375 c 1
 696 47 l 1
 624.354492188 -10.3515625 511.6953125 -57.7841796875 364 -57.5380859375 c 0
506 406.842773438 m 1
 507.64453125 463.158203125 496.786132812 528.805664062 565 568 c 1
 594 546.889648438 l 1
 593.51171875 491.823242188 726 455.326171875 726 386 c 0
 726 313.143554688 634 241.561523438 545 234 c 1
 536 274 l 1
 593 284 652 321.561523438 652 378 c 0
 652 426 566.39453125 468.649414062 566 507.856445312 c 1
 554.118164062 493.653320312 558.6328125 470 558.6328125 421.313476562 c 0
 556 -378 l 1
 506 -378 l 1
 506 406.842773438 l 1
438.465820312 371.448242188 m 1
 439.303710938 371.296875 440.147460938 371.146484375 441 371 c 1
 441 371.776367188 440.05859375 371.853515625 438.465820312 371.448242188 c 1
EndSplineSet
Layer: 2
Layer: 3
EndChar

StartChar: si_U
Encoding: 9 3467 19
GlifName: si_U_
Width: 695
VWidth: -17
Flags: HW
VStem: 576 17<359.232 362>
LayerCount: 4
Back
Fore
SplineSet
130 92 m 4
 118.308256617 -29.4979062619 181.951872942 -190.2338992 392 -206.380859375 c 4
 484.18860057 -213.467643165 572.739436073 -174.856805991 634 -106 c 5
 677 -168 l 5
 629 -212 541.929683719 -271.307842526 380 -276.19140625 c 4
 94.69140625 -284.795898438 -1.58747070746 -92.1777856194 9 38 c 4
 31.611328125 316.016601562 283.999992483 374.000582662 439 376 c 4
 501.002929688 376.799804688 537 370 566 365 c 5
 566 370 541.833333333 346 541 351 c 5
 533.571428571 468 424.214285714 499 346 481 c 5
 290 402 l 5
 244 405 222.087119932 445.53313978 233 481 c 4
 249 533 310 561 393 561 c 4
 475.285714286 561 569.03411905 506.793786248 583 423 c 4
 592.095703125 368.426757812 580 318 580 318 c 5
 580 316 l 5
 367 336 149.24609375 292.000976562 130 92 c 4
EndSplineSet
Layer: 2
Layer: 3
EndChar

StartChar: si_E
Encoding: 15 3473 23
GlifName: si_E_
Width: 800
VWidth: -14
Flags: HW
HStem: -58 100<237.731 483.285> 264 52<52.3333 113 357 406> 428 62<242 323.758> 653 53<236.092 463.882>
VStem: 76 83<102.019 208.388> 357 57<322.076 396.84> 638 72<205.708 463.176>
LayerCount: 4
Back
SplineSet
166 641 m 1
 173 648 l 1
 197 645.692307692 210.110057236 660.148615767 233 642 c 0
 266.655462185 615.315789474 287.309259483 603.736393043 322 603 c 0
 390.853895268 601.53841317 440.014888651 628.69672912 513 630 c 1
 553 564 l 1
 484.640869682 591.764669918 417.590085091 529.051845151 288 539.301757812 c 0
 197.79326965 554.375870151 195.073619632 610.722344926 135 590 c 1
 166 641 l 1
406 262 m 1
 260 278 155.000457224 239.000021021 159 152 c 0
 161.939453125 88.0595703125 234.999022954 41.1953966836 375 42 c 0
 549 43 638 173 638 326 c 0
 638 507.186544343 534.449042852 654.40649119 332 648 c 0
 205.954101562 644.07421875 117 573 114 573 c 1
 81 613 l 1
 120 643.253012048 225.001113451 706.58985662 353 706 c 0
 582.878338279 705 710 537 710 321 c 0
 710 107 601.001951867 -56.4236398072 365 -58 c 0
 209 -59.0419921875 79.8490260023 2.05762892391 76 131 c 0
 72 265 235 325 357 318 c 1
 367 378 334 428 242 428 c 1
 216 347 l 1
 165 340 130.76031191 368.857746694 139 415 c 0
 149 471 207 490 254 490 c 0
 330 490 409.999457871 452.999979147 414 349 c 0
 415.383789062 313.026367188 406 262 406 262 c 1
10 316 m 1
 411 322 l 1
 406 264 l 1
 113 264 l 1
 9 252 l 1
 10 316 l 1
EndSplineSet
Fore
SplineSet
336.81640625 671.124023438 m 5
 427 680 l 1
 425.842773438 652.919921875 448.176757812 567.0546875 488 549 c 0
 564.103515625 516.365234375 597.166015625 596.057617188 654 548 c 1
 683 516 l 1
 614.135742188 544.92578125 558.637695312 458.6875 457 495.301757812 c 4
 376.956054688 524.13671875 380.422138226 671.103124612 336.81640625 671.124023438 c 5
30 317 m 1
 411 316 l 1
 406 274 l 1
 113 274 l 1
 29 262 l 1
 30 317 l 1
405.504882812 668.212890625 m 0
 359.70476176 677.881634396 356.819335938 669.996182698 315 663 c 1
 316 731 l 1
 641.057046308 730.21331936 760 516.808403201 760 311 c 0
 760 91.0389972145 639.969813788 -50.3820154111 450 -58 c 0
 241.291028787 -65.8599509371 126.364332992 17.8013347216 123 121 c 0
 118.614471687 269.0700682 261.970588235 312.060272033 375 316 c 1
 375 397.333333333 334 438 242 438 c 1
 216 357 l 1
 169.636363636 350 138.50933545 378.857506371 146 425 c 0
 155.391304348 481 209.860869565 500 254 500 c 0
 320 500 409.999456428 463.000016657 414 359 c 0
 415.383789062 323.026367188 406 272 406 272 c 1
 278.25 288.000488282 195.343512161 239.91000891 196 162 c 0
 196.540153488 91.6572239252 290.048202864 50.9382715874 434 52 c 0
 606.9035995 53.3002457237 698 160.372262774 698 346 c 0
 698 548.711039482 539.286272538 641.901776851 405.504882812 668.212890625 c 0
EndSplineSet
Layer: 2
Layer: 3
EndChar

StartChar: si_O
Encoding: 18 3476 26
GlifName: si_O_s
Width: 915
VWidth: -24
Flags: HW
LayerCount: 4
Back
Fore
SplineSet
539 -16 m 1
 434 -16 390 51 375 155 c 1
 373 152 412 158 410 155 c 1
 392.119140625 54 343.748046875 -14.1982421875 227 -15 c 1
 75 -15 38.412109375 142.412109375 37 224 c 0
 34.66015625 359.161132812 104.94921875 463.7578125 186 466 c 0
 233.299804688 467.30859375 267.819335938 430.991210938 267.819335938 360 c 0
 267.819335938 267.576171875 312.775390625 249.145507812 381 248 c 0
 463.32421875 246.40625 491.235351562 288.099609375 493 339 c 0
 494.680664062 384.258789062 475.168945312 455.438476562 401 456 c 0
 362.834960938 456.2890625 341.453125 430.012695312 341 406 c 0
 340.623046875 386.029296875 352.1015625 359.251953125 391 359.561523438 c 0
 439.637695312 359.948242188 451.7578125 415.357421875 420 455.561523438 c 1
 462 454.561523438 l 1
 488.451171875 406.20703125 460.056640625 320.515625 386 322 c 0
 345.823242188 322.805664062 305.15625 341.78515625 304 400.856445312 c 0
 303.331054688 435.036132812 328 490 406 490 c 0
 488.267578125 490 537.436523438 429.053710938 538 344 c 0
 538.395507812 281.319335938 499.31640625 200.044921875 380 201 c 0
 272.291015625 201.779296875 221 253.416992188 221 328 c 0
 221 372 213.053710938 417.716796875 176 417 c 0
 123.4921875 415.984375 101.079101562 319.099609375 104 247 c 0
 108.251953125 142.041992188 163.04491478 94.2627243479 237 91 c 0
 305 88 372 117.290039062 375 243 c 1
 403 244 l 1
 406 129.411132812 481.875976562 91.0205078125 547 93 c 0
 632.983398438 95.61328125 673.440429688 223.1640625 678 304 c 0
 688.011381225 481.49027464 607.099724317 656.364396532 379 659 c 0
 234.40475591 660.790508156 146.277777778 577 143 577 c 1
 108 627 l 0
 108 627 218.187681891 713.634076009 371 713 c 0
 625.615819209 712 747.532800245 509.28209692 745 312 c 0
 743.398894938 187.288481733 708 -16 539 -16 c 1
EndSplineSet
Layer: 2
Layer: 3
EndChar

StartChar: si_Kha
Encoding: 22 3483 29
GlifName: si_K_ha
Width: 835
VWidth: -24
Flags: HW
LayerCount: 4
Back
SplineSet
290.736328125 343.590820312 m 4x5f80
 195.237304688 343.1484375 129.991210938 249.772460938 130 166 c 4
 130.012695312 42.544921875 183.228515625 -3.1220703125 255 -3.2998046875 c 4x9f80
 290.143554688 -3.38671875 308.22265625 31.3310546875 308.409179688 57.7451171875 c 4
 308.599609375 84.7783203125 294.728515625 111.390625 252.8828125 110.939453125 c 4
 233.487304688 110.73046875 202.7734375 90.455078125 203.977539062 55.763671875 c 4
 204.986328125 26.703125 224.446289062 -11.9931640625 272.888671875 -18.09375 c 4
 265.706054688 -29.3828125 l 4x3f80
 207.858398438 -27.16796875 159.577148438 16.626953125 158.389648438 57.98828125 c 4
 156.850585938 111.6171875 202.317382812 157.215820312 257.249023438 157.60546875 c 4
 305.462890625 157.947265625 354.072265625 127.767578125 355.776367188 65.1171875 c 4
 357.46875 9.435546875 325.696289062 -53.693359375 241 -52.787109375 c 4x9f80
 124.6171875 -51.34765625 74.3466796875 51.4404296875 77.5234375 157.9375 c 4
 82.298828125 318.005859375 181.123046875 443.0234375 326.396484375 444.801757812 c 4
 421.767578125 445.96875 548.081054688 365.548828125 540.779296875 204 c 5
 536.680664062 201.66796875 532.576171875 192.340820312 528.501953125 190 c 5
 496.125 182.859375 467.134765625 155.58984375 467.287109375 114 c 4
 467.38671875 86.8173828125 487.865234375 51.3623046875 549 49.73046875 c 4
 655.110351562 46.8974609375 705.552734375 244.466796875 693 377 c 4
 681.94921875 493.670898438 601.075195312 656.302734375 381 659 c 4
 244.995117188 660.666992188 173 570 170 570 c 5
 135 622 l 4
 135 622 221.178710938 702.440429688 368 710 c 4
 632.89453125 723.638671875 798.775390625 539 789 302 c 4
 781.198242188 93.185546875 703.6796875 -51.9990234375 552 -52 c 4
 449.58984375 -52.0009765625 401.55859375 18.7392578125 401.739257812 82 c 4
 401.946289062 154.42578125 442.963867188 207.8515625 501 231 c 5
 504.359375 234.1328125 476.020507812 203.118164062 479.032226562 206 c 5
 460.500976562 285.725585938 367.551757812 343.946289062 290.736328125 343.590820312 c 4x5f80
EndSplineSet
Fore
SplineSet
314.736328125 327.590820312 m 0x5f80
 203.195802752 327.100719871 126.985755144 251.884561953 127 146 c 0
 127.012818952 52.7538590283 173.086504601 -9.15345239253 263 -9.2998046875 c 0x9f80
 300.117584441 -9.37657636951 319.25571358 23.0614214099 319.409179688 47.7451171875 c 0
 319.565314012 75.2865173348 303.404970171 102.185747302 273.8828125 101.939453125 c 0
 247.088453523 101.715916124 226.394619178 81.1030465725 225.977539062 45.763671875 c 0
 225.664270448 20.6378070045 239.911604729 -12.819159038 272.888671875 -18.09375 c 0
 265.706054688 -29.3828125 l 0x3f80
 206.731211062 -27.4721668991 183.791233044 10.3167535141 182.389648438 45.98828125 c 0
 180.943995136 99.6171875 223.651705855 145.151210911 275.249023438 145.60546875 c 0
 322.548130287 145.939874486 366.264555807 110.412447541 365.776367188 55.1171875 c 0
 365.375952085 4.13163770096 326.696289062 -53.6164961882 251 -52.787109375 c 0x9f80
 127.496976889 -51.4339151825 74.0437662328 51.4443910107 77.5234375 157.9375 c 0
 82.2796400663 303.498031263 180.703060509 417.491666124 325.396484375 418.801757812 c 0
 459.05720059 419.984605747 542.074492959 314.57076811 544.779296875 195 c 4
 546.57008529 118.78646824 507.778251648 64.5026400613 482.997070312 30 c 1
 482.197265625 75 l 1
 497.372113264 60.2380207647 515.361185585 49.2758894105 558 49.73046875 c 0
 674.680322387 50.9744166556 714.105424865 226.615033509 709 348 c 0
 703.241705847 484.90738015 627.106418124 657.165845278 431 659 c 0
 252.766471972 660.666992188 173.710900474 570 170 570 c 1
 135 622 l 0
 135 622 224.903646689 701.925712508 378 710 c 0
 636.602499629 723.638671875 797.620471704 539.035356137 789 302 c 0
 781.362836235 92.0024621547 705.479694096 -53 557 -53 c 0
 506.421050431 -53 496.251672524 -34.6067593248 473 -38.96875 c 0
 455.90476236 -42.1757996047 441.099271041 -55.6492413554 426 -93.9130859375 c 1
 380.888671875 -79 l 1
 427.260380109 1.81376136235 480.000217916 108.174712317 480.032226562 186 c 0
 480.066897964 270.299463927 404.686449459 328.008291279 314.736328125 327.590820312 c 0x5f80
EndSplineSet
Layer: 2
Layer: 3
EndChar

StartChar: si_Ga
Encoding: 23 3484 30
GlifName: si_G_a
Width: 959
VWidth: -24
Flags: HW
HStem: -44.0049 124.96<223.948 425.742> -41.8145 49.4268<586.935 736.187> 451.533 105.07<546.482 723.91> 501.88 50.1201<251.545 337>
VStem: 53.9951 67.9795<179.847 355.129> 822.623 86.2471<136.969 353.147>
AnchorPoint: "si_hal" 720 511 basechar 0
LayerCount: 4
Back
Fore
SplineSet
700.759765625 17.6123046875 m 0x6c
 803.730012091 29.5855891603 856.623046875 108.114257812 856.623046875 229.600585938 c 0
 856.623046875 353.83984375 776.359375 445.533203125 636.9375 445.533203125 c 4
 556.0703125 445.533203125 445.365531913 397.33234502 438.877929688 254.823242188 c 1
 388.610351562 238.01171875 l 1
 384.657226562 437.1640625 515.451171875 542.603515625 655.6796875 542.603515625 c 0
 827.643554688 542.603515625 920.870117188 411.889648438 920.870117188 267.375 c 0
 920.870117188 101.1640625 836.109375 -54.5166015625 664.411132812 -55.814453125 c 0
 613.534972106 -56.1990214457 573.655273438 -45.9150390625 555.682617188 -36.138671875 c 1
 580.452148438 40.328125 l 1
 602.016601562 24.771484375 657.087890625 12.5341796875 700.759765625 17.6123046875 c 0x6c
111.974609375 245.841796875 m 0
 111.224947768 128.711194652 180.21484375 50.8837890625 308 47.5908203125 c 0
 414.426757812 44.8486328125 485.633025268 87.9111518545 488 160 c 0
 489.319040698 200.172851562 462.767578125 237 389 237 c 1
 440 291 l 1
 489 290 551.65234375 244.21484375 552 160 c 0
 552.451171875 47.953125 473.594726562 -55.0048828125 308.598632812 -55.0048828125 c 0
 140.69140625 -55.0048828125 53.9951171875 61.9140625 53.9951171875 221.564453125 c 0
 53.9951171875 428.865278548 210.2890625 536 337 538 c 0
 344.879882812 462.879882812 l 0x9c
 249.916015625 462.879882812 113.059980801 415.425256344 111.974609375 245.841796875 c 0
EndSplineSet
Layer: 2
Layer: 3
EndChar

StartChar: si_Gha
Encoding: 24 3485 31
GlifName: si_G_ha
Width: 915
VWidth: -24
Flags: HW
LayerCount: 4
Back
Fore
SplineSet
39 379 m 1xc4
 417 381 l 1
 419 336 l 1
 123 335 l 1xa4
 38 322 l 1
 39 379 l 1xc4
547 373 m 1
 580 384 l 1
 679.491210938 410.330078125 865 380.840820312 865 186 c 0
 865 64 790.377929688 -45 659 -45 c 0
 554 -45 521 13 506 117 c 1
 505.427734375 116.142578125 540 147 534 165 c 24
 528 183 486.626953125 183.658203125 484 184 c 1
 481.327148438 184.34765625 438 184 427 162 c 24
 419 145 461.505859375 117.758789062 461 117 c 1
 443.119140625 16 420.748046875 -43.1982421875 304 -44 c 0
 171.470703125 -44.91015625 99.1728515625 54.9951171875 101 154 c 0
 103.165039062 268 197.35546875 346 232 347 c 1
 326 338 l 1
 239.861328125 324.103515625 161.854492188 266.251953125 163 183 c 0
 163.899414062 112.950195312 215.602539062 66.7216796875 304 62 c 0
 345.575534477 59.7790143032 409.211914062 74.7744140625 415 107.828125 c 1
 414.201171875 132.467773438 370.123013369 139.845373801 371 171 c 0
 372.030155581 207.595896569 416.004882812 243.372070312 488 242 c 0
 555.00390625 240.72265625 590 210 590 174 c 0
 590 142.71560447 550.262695312 129.123046875 548 112.466796875 c 1
 551.45703125 84.8037109375 620.854500708 64.2333014695 664 64 c 0
 743.806640625 63.599609375 799.400390625 113.7890625 801 195 c 0xb5
 803.384765625 310.975585938 705.305664062 383.813476562 542 328 c 1
 537 350.166992188 532.391601562 374.670898438 532 398 c 0
 530 500 603 568 687 570 c 0
 753.981445312 571.594726562 830 532 830 452 c 0
 830 356 737 330 737 330 c 1
 721 337 l 1
 721 337 760 374.990234375 760 424 c 0xa6
 760 465 719.879882812 513.047851562 656 509 c 0
 619.995117188 506.71875 577 472 572 411 c 0
 568.227539062 364.98046875 588 353 588 353 c 1
 547 373 l 1
388 364 m 1
 391 398 391 417 379 445 c 0
 365 480 310 508 260 503 c 0
 209 419 l 1
 179 422 155 439 155 476 c 0
 155 543 227 568 280 568 c 0
 360 568 433.29296875 518.05078125 436 433 c 0x8c
 437.56640625 383.791015625 428 358.083007812 419 337 c 1
 388 364 l 1
EndSplineSet
Layer: 2
Layer: 3
Colour: ff0000
EndChar

StartChar: si_Nnga
Encoding: 26 3487 33
GlifName: si_N_nga
Width: 1063
VWidth: -24
Flags: HW
LayerCount: 4
Back
Fore
SplineSet
441 474 m 25
 291 490 l 17
 156 448 95.365234375 383.963867188 90 238 c 0
 87.2509765625 163.2109375 130.008789062 56.189453125 178 18.7021484375 c 0
 137 -30.3115234375 l 0
 69.341796875 20.875 22 137.236328125 28 245 c 0
 41.0634765625 479.63671875 251 599 440 539 c 1
 441 474 l 25
EndSplineSet
Refer: 30 3484 N 1 0 0 1 104 0 2
Layer: 2
Layer: 3
Colour: ff0000
EndChar

StartChar: si_Cha
Encoding: 28 3489 34
GlifName: si_C_ha
Width: 776
VWidth: -24
Flags: HW
AnchorPoint: "si_MaU" 710 158.28 mark 0
AnchorPoint: "si_hal" 639 516 basechar 0
LayerCount: 4
Back
Fore
SplineSet
592 219 m 0
 511.918945312 219.434570312 488.201116911 292.763424947 486.741210938 352 c 4
 481.936523438 546.953125 622.448767968 725.752779993 781 771 c 1
 808 688 l 17
 633.265625 660.305664062 549.120117188 507.9765625 537.295898438 414 c 0
 525.741210938 322.166992188 542.079101562 263.030273438 595 264 c 0
 639.142578125 264.80859375 660.87890625 295.380859375 661 367 c 0
 661.078125 413 628 494 549 494 c 0
 502 494 465 462 465 419 c 0
 465 367 490 352 490 352 c 1
 442 333 l 1
 434 358 427 384 427 426 c 0
 428 512 510 553 571 553 c 0
 654 553 725 477 725 397 c 0
 725 266.061523438 656.436523438 218.650390625 592 219 c 0
119 209 m 0
 118 124 203 45 388 45 c 0
 563 45 663.451154009 127.008854445 665 216 c 0
 666.775330903 318.004157759 539 348 442 333 c 1
 462 373 l 1
 607 402 740 331 736 193 c 0
 731 29 564 -59 383 -59 c 0
 189 -59 38 33 40 180 c 0
 42 339 208 394 316 384 c 1
 292 345 l 1
 299 365 312.3731417 386.33162663 308 415 c 0
 299 474 239 505 171 490 c 0
 204 511 l 1
 149 409 l 1
 108 411 81.6005478023 436.013695057 83 471 c 0
 85 521 142 557 202 557 c 0
 272 557 344 517 346 439 c 0
 347 402 341 370 332 333 c 1
 208 351 120 287 119 209 c 0
EndSplineSet
Layer: 2
Layer: 3
EndChar

StartChar: si_Ja
Encoding: 29 3490 35
GlifName: si_J_a
Width: 776
VWidth: -24
Flags: HW
AnchorPoint: "si_hal" 639 516 basechar 0
AnchorPoint: "si_MaU" 710 158.28 mark 0
LayerCount: 4
Back
Fore
SplineSet
637 458 m 9
 688 479 l 25
 688 479 689.344726562 453.623046875 690 432 c 0
 691 399 681.14316462 345.14565047 612 346 c 0
 529.8046875 347.015625 511.294642069 411.631971212 510.409179688 474 c 0
 508.469726562 610.606445312 612.135742188 725.743164062 761 771 c 1
 784 684 l 21
 669.265625 682.305664062 545.011365245 606.846052658 555.295898438 461 c 0
 558.677497152 413.045191066 581.100585938 386.447265625 614 385 c 4
 662.357421875 382.873046875 648.147857261 447.357724458 637 458 c 9
497 352 m 1
 442 333 l 1
 434 358 427 384 427 426 c 0
 428 512 510 553 571 553 c 0
 654 553 715 507 715 427 c 0
 715 349 618 309 618 309 c 1
 602 326 l 1
 636.051288152 347.130311028 650.883587155 377.105818001 651 417 c 0
 651.13422914 462.999749757 608 494 549 494 c 0
 502 494 469 452 469 409 c 0
 469 357 497 352 497 352 c 1
119 209 m 0
 118 124 203 45 388 45 c 0
 563 45 663.451154009 127.008854445 665 216 c 0
 666.775330903 318.004157759 539 348 442 333 c 1
 462 373 l 1
 607 402 740 331 736 193 c 0
 731 29 564 -59 383 -59 c 0
 189 -59 38 33 40 180 c 0
 42 339 208 394 316 384 c 1
 287 345 l 1
 294 365 307.373046875 386.33203125 303 415 c 0
 294 474 239 505 171 490 c 0
 204 511 l 1
 149 409 l 1
 108 411 81.6005478023 436.013695057 83 471 c 0
 85 521 142 557 202 557 c 0
 272 557 344 517 346 439 c 0
 347 402 341 370 332 333 c 1
 208 351 120 287 119 209 c 0
EndSplineSet
Layer: 2
Layer: 3
EndChar

StartChar: si_Ttha
Encoding: 35 3496 40
GlifName: si_T_tha
Width: 868
VWidth: -14
Flags: HW
LayerCount: 4
Back
Fore
SplineSet
447 305 m 1
 464.684570312 392.088867188 408.3515625 448.735351562 311 440 c 1
 261 358 l 1
 231 361 207 378 207 415 c 0
 207 482 279 507 332 507 c 0
 412 507 487.65625 457.983398438 492 373 c 0x8c
 494.56640625 322.791015625 488 304.083007812 481 282 c 1
 447 305 l 1
479.442382812 293 m 1
 453.442382812 305 415.467773438 291.521484375 382.442382812 290 c 0
 286.631835938 285.69921875 206.629882812 248.908203125 205.442382812 161 c 0
 204.799804688 113.450195312 247.28515625 71.2998046875 325 71 c 0
 391.03125 70.7548828125 447.442382812 111.124023438 447.442382812 205 c 1
 454.446289062 205.030273438 479.297851562 205.259765625 486 205.6796875 c 1
 486 108.375 550.194335938 71.36328125 605 71 c 0
 685.8515625 70.4794921875 736.901367188 143.420898438 741.442382812 317 c 0
 747.26953125 552.506835938 598.926757812 660.170898438 454.442382812 663 c 0
 313.016601562 665.685546875 223.5625 574 220.442382812 574 c 1
 187.442382812 625 l 0
 237.416015625 663.076171875 326.6796875 712.578125 445.442382812 712 c 0
 665.841796875 710.90234375 816.264648438 549.208007812 817.442382812 312 c 0
 818.178710938 149.983398438 765.995117188 -37.759765625 609 -41 c 0
 539.114257812 -42.470703125 483.245117188 -12.5888671875 463.442382812 51 c 1
 440.416992188 -17 371.322265625 -41.2734375 313 -41 c 0
 221.05859375 -40.5693359375 138.290039062 9.8798828125 134.442382812 128 c 0
 129.907226562 267.220703125 269.413085938 328.831054688 380.442382812 332 c 0
 452.442382812 334 469.442382812 319 469.442382812 319 c 1
 479.442382812 293 l 1
EndSplineSet
Layer: 2
Layer: 3
EndChar

StartChar: si_Dda
Encoding: 36 3497 41
GlifName: si_D_da
Width: 868
VWidth: -14
Flags: HW
LayerCount: 4
Back
Fore
SplineSet
84 328 m 1
 485 333 l 1
 480 283 l 1
 177 284 l 5
 83 265 l 1
 84 328 l 1
447 305 m 1
 464.684570312 392.088867188 408.3515625 448.735351562 311 440 c 1
 261 358 l 1
 231 361 207 378 207 415 c 0
 207 482 279 507 332 507 c 0
 412 507 487.65625 457.983398438 492 373 c 0x8c
 494.56640625 322.791015625 488 304.083007812 481 282 c 1
 447 305 l 1
479.442382812 293 m 1
 453.442382812 305 415.467773438 291.521484375 382.442382812 290 c 0
 286.631835938 285.69921875 206.629882812 248.908203125 205.442382812 161 c 0
 204.799804688 113.450195312 247.28515625 71.2998046875 325 71 c 0
 391.03125 70.7548828125 447.442382812 111.124023438 447.442382812 205 c 1
 454.446289062 205.030273438 479.297851562 205.259765625 486 205.6796875 c 1
 486 108.375 550.194335938 71.36328125 605 71 c 0
 685.8515625 70.4794921875 736.901367188 143.420898438 741.442382812 317 c 0
 747.26953125 552.506835938 598.926757812 660.170898438 454.442382812 663 c 0
 313.016601562 665.685546875 223.5625 574 220.442382812 574 c 1
 187.442382812 625 l 0
 237.416015625 663.076171875 326.6796875 712.578125 445.442382812 712 c 0
 665.841796875 710.90234375 816.264648438 549.208007812 817.442382812 312 c 0
 818.178710938 149.983398438 765.995117188 -37.759765625 609 -41 c 0
 539.114257812 -42.470703125 483.245117188 -12.5888671875 463.442382812 51 c 1
 440.416992188 -17 371.322265625 -41.2734375 313 -41 c 0
 221.05859375 -40.5693359375 138.290039062 9.8798828125 134.442382812 128 c 0
 129.907226562 267.220703125 269.413085938 328.831054688 380.442382812 332 c 0
 452.442382812 334 469.442382812 319 469.442382812 319 c 1
 479.442382812 293 l 1
EndSplineSet
Layer: 2
Layer: 3
EndChar

StartChar: si_Nna
Encoding: 38 3499 43
GlifName: si_N_na
Width: 1260
VWidth: 0
Flags: HW
LayerCount: 4
Back
Fore
SplineSet
686 288 m 17
 683 410 741.006835938 481.403320312 813 483 c 0
 880.05859375 484.487304688 935.844726562 421.032226562 941 274 c 9
 926 268 l 0
 928 414 997.068359375 481.088867188 1061 484 c 0
 1152.92227874 488.185688952 1217.26855469 407.076171875 1222 232 c 0
 1225 121 1196.10543896 -71.0065866573 1050 -70 c 0
 997.787389794 -69.6402836393 938.198242188 -39.75 921 -19 c 1
 963 52 l 1
 984.353515625 33.419921875 1020.96191406 8.7109375 1060 9 c 0
 1128.08007812 9.50390625 1172.40429688 115.823242188 1171 212 c 0
 1169 349 1121.11173596 396.60423297 1061 396 c 0
 984.966837816 395.235727555 957 284 960 128 c 0
 900 142 l 0
 903 296 870.969726562 385.633789062 808 388 c 0
 771.436523438 389.374023438 723 367 713 276 c 1
 710.091796875 259.858398438 697 276 686 288 c 17
492.83984375 253.740234375 m 256
 492.83984375 294.330078125 460.860351562 327.540039062 420.26953125 327.540039062 c 256
 379.6796875 327.540039062 346.469726562 294.330078125 346.469726562 253.740234375 c 256
 346.469726562 213.150390625 385.6796875 182.940429688 416.26953125 182.940429688 c 256
 400.26953125 137.26953125 l 256
 341.23046875 137.26953125 302.030273438 195.76953125 302.030273438 254.809570312 c 256
 302.030273438 313.849609375 361.23046875 380.75 420.26953125 380.75 c 256
 499.309570312 380.75 538.509765625 321.549804688 538.509765625 262.509765625 c 256
 538.509765625 190.440429688 506.5390625 135.66015625 397.990234375 135.66015625 c 256
 290.98046875 135.66015625 154.1796875 199.690429688 154.1796875 329.48046875 c 256
 154.1796875 478.790039062 309.41015625 575.049804688 431.1796875 575.049804688 c 256
 588.349609375 575.049804688 715.700195312 458.629882812 715.700195312 265.83984375 c 256
 715.700195312 146.530273438 654.240234375 -58 418.509765625 -58 c 256
 205.719726562 -58 201.080078125 93.91015625 103.91015625 93.91015625 c 256
 70.7001953125 93.91015625 62.08984375 77.919921875 36.259765625 60.7001953125 c 257
 10.4296875 90.2197265625 l 257
 229.334960938 277.590820312 485.352539062 586.549804688 818.969726562 719.549804688 c 256
 853.5703125 652.969726562 l 256
 578.614257812 602.169921875 296.568359375 279.106445312 132.360351562 135.889648438 c 257
 206.16015625 135.889648438 237.700195312 49.330078125 424.66015625 49.330078125 c 260
 552.580078125 49.330078125 659.280273438 148.669921875 659.280273438 274.129882812 c 260
 659.280273438 406.059570312 568.780273438 524.299804688 428.719726562 524.299804688 c 256
 322.940429688 524.299804688 228.620117188 441.73046875 228.620117188 335.629882812 c 256
 228.620117188 203.500809155 356.005859375 186.310546875 422 185 c 256
 454.0546875 184.36328125 492.83984375 199.913085938 492.83984375 253.740234375 c 256
EndSplineSet
Layer: 2
Layer: 3
EndChar

StartChar: si_Tha
Encoding: 41 3502 45
GlifName: si_T_ha
Width: 800
VWidth: -14
Flags: HW
HStem: -58 100<237.731 483.285> 264 52<52.3333 113 357 406> 428 62<242 323.758> 653 53<236.092 463.882>
VStem: 76 83<102.019 208.388> 357 57<322.076 396.84> 638 72<205.708 463.176>
LayerCount: 4
Back
Fore
SplineSet
432.442382812 53 m 0
 606.903057197 53.3704637965 698 160.372262774 698 346 c 0
 698 548.711039482 539.286272538 641.901776851 405.504882812 668.212890625 c 0
 359.70476176 677.881634396 356.819335938 669.996182698 315 663 c 1
 316 731 l 1
 641.057046308 730.21331936 760 516.808403201 760 311 c 0
 760 91.0389972145 629.969726562 -56.3818359375 431.442382812 -59 c 0
 238.44921875 -60.677734375 128.573242188 38.0029296875 125.442382812 176 c 0
 122.153320312 320.966796875 244.427734375 394.418945312 355.442382812 398 c 0
 417.442382812 400 457.442382812 379 457.442382812 379 c 1
 443.442382812 334 l 1
 417.442382812 346 383.442382812 352 350.442382812 350 c 0
 280.369140625 345.8515625 207.5546875 302.787109375 206.442382812 218 c 0
 205.442382812 140.005859375 269.440429688 52.2841796875 432.442382812 53 c 0
336.81640625 671.124023438 m 1
 408 680 l 1
 406.842411748 652.9199701 442.176652403 567.054609442 482 549 c 0
 558.103687328 516.365234375 597.165650755 581.057617188 654 533 c 1
 671 500 l 1
 602.136145356 518.925781249 551.493716699 455.291092093 460 485.301757812 c 0
 369.477344724 516.791841306 390.422138226 651.103124612 336.81640625 671.124023438 c 1
EndSplineSet
Layer: 2
Layer: 3
EndChar

StartChar: si_Da
Encoding: 42 3503 46
GlifName: si_D_a
Width: 595
VWidth: -17
Flags: HMW
HStem: 2 44<410.492 472.593 499.794 519>
LayerCount: 4
Back
SplineSet
182 199 m 0
 172 72 299 -23 529 46 c 1
 545 2 l 1
 417 -30 376 -115 376 -162 c 0
 376 -214 412 -267 496 -262 c 0
 522 -260 557 -247 584 -226 c 1
 601 -262 l 1
 551 -299 504 -319 447 -319 c 0
 363 -318 292 -264 291 -186 c 0
 290 -121 340 -34 469 5 c 1
 476 9 464 -23 473 -19 c 1
 222 -78 79 19 81 165 c 0
 83 313 232 392 377 394 c 0
 439 395 459 387 488 382 c 1
 488 387 449 363 448 368 c 1
 460 475 393 506 318 498 c 1
 262 409 l 1
 216 412 196 452 205 488 c 0
 221 550 282 568 345 568 c 0
 417 568 505 523 513 444 c 0
 519 389 502 335 502 335 c 1
 502 335 l 1
 502 333 l 1
 309 363 191 309 182 199 c 0
EndSplineSet
Fore
SplineSet
152 199 m 0
 139.30162104 59.7270487503 303.229691877 -31.3035254506 549 57 c 1
 565 23 l 1
 473.01250449 -15.8620689655 425.565037378 -87.864724616 416 -138 c 0
 402.697774104 -207.723800567 416.242471249 -311.39455477 553 -318 c 0
 550 -349 l 0
 395.995325448 -386.892565331 317.308652357 -297.06900405 314 -205 c 0
 311.855040097 -129.251968877 367.6796875 -29.1256544502 509 16 c 1
 521 18.3333333333 529 -0.333333333333 493 2 c 1
 253.507047455 -90.266304348 38.8990241606 -4.33743479325 41 165 c 0
 42.920134029 319.761689701 205.887780243 393.121276769 397 394 c 0
 456.002656031 394.271290892 499 385 499 385 c 1
 499 387.5 488.35483871 375.5 488 378 c 1
 491.6 475 373 506 318 498 c 1
 262 409 l 1
 216 412 195.556400279 452.11432106 205 488 c 0
 220 545 273 571 336 571 c 0
 408 571 505.999756248 527.999959374 520 444 c 0
 529.095703125 389.426757812 513 345 513 345 c 1
 513 343 l 1
 273.457943925 364.492537313 162.53640311 306.422797877 152 199 c 0
EndSplineSet
Layer: 2
Layer: 3
EndChar

StartChar: si_Dha
Encoding: 43 3504 47
GlifName: si_D_ha
Width: 756
VWidth: -14
Flags: HW
LayerCount: 4
Back
Fore
SplineSet
353.442382812 354 m 1
 327.442382812 366 293.467773438 371.521484375 260.442382812 370 c 0
 164.631991441 365.698859279 94.2682001399 288.912157304 93.4423828125 201 c 0
 92.7998046885 133.450593171 135.28515625 71.2999855324 213 71 c 0
 279.031538013 70.755038454 335.442382812 111.123624937 335.442382812 205 c 1
 342.446289062 205.030273438 367.297851562 205.259765625 374 205.6796875 c 1
 374 108.375 438.194679786 71.3636807723 493 71 c 0
 573.851204041 70.4792109991 625.901367188 142.420898438 630.442382812 316 c 0
 636.26953125 551.506835938 486.926717123 660.170562889 342.442382812 663 c 0
 201.016601564 665.685240279 111.562382812 574 108.442382812 574 c 1
 75.4423828125 625 l 0
 125.41574157 663.076171875 214.679845757 712.578125 333.442382812 712 c 0
 553.84209796 710.90234375 705.264648438 549.208007812 706.442382812 312 c 4
 707.178710938 149.983398438 653.995347343 -37.7595351739 497 -41 c 0
 427.11412768 -42.470703125 371.244800937 -12.5888671875 351.442382812 51 c 1
 328.416863144 -17 254.322445978 -41.2734375 206 -41 c 0
 114.059585355 -40.4311428626 25.8069374521 19.8668461772 22.4423828125 158 c 0
 18.563722435 317.239973172 147.413085938 414.830687994 258.442382812 418 c 0
 330.442382812 420 367.442382812 399 367.442382812 399 c 1
 353.442382812 354 l 1
EndSplineSet
Layer: 2
Layer: 3
EndChar

StartChar: si_Pha
Encoding: 47 3509 49
GlifName: si_P_ha
Width: 800
VWidth: -14
Flags: HW
HStem: -58 100<237.731 483.285> 264 52<52.3333 113 357 406> 428 62<242 323.758> 653 53<236.092 463.882>
VStem: 76 83<102.019 208.388> 357 57<322.076 396.84> 638 72<205.708 463.176>
LayerCount: 4
Back
Fore
SplineSet
336.81640625 671.124023438 m 1
 408 680 l 1
 406.842411748 652.9199701 442.176652403 567.054609442 482 549 c 0
 558.103687328 516.365234375 597.165650755 581.057617188 654 533 c 1
 671 500 l 1
 602.136145356 518.925781249 551.493716699 455.291092093 460 485.301757812 c 0
 369.477344724 516.791841306 390.422138226 651.103124612 336.81640625 671.124023438 c 1
405.504882812 668.212890625 m 0
 359.70476176 677.881634396 356.819335938 669.996182698 315 663 c 1
 316 731 l 1
 641.057046308 730.21331936 760 516.808403201 760 311 c 0
 760 91.0389972145 639.969813788 -50.3820154111 450 -58 c 0
 241.291028787 -65.8599509371 126.364332992 17.8013347216 123 121 c 0
 118.614471687 269.0700682 271.970703125 309.060546875 385 303 c 5
 378 375.333007812 330 419 262 408 c 5
 236 327 l 1
 189.63671875 320 158.509765625 348.857421875 166 395 c 0
 175.391601562 451 229.861328125 470 274 470 c 0
 340 470 419.999023438 443 424 339 c 0
 425.383789062 303.026367188 416 252 416 252 c 1
 288.25 268.000976562 195.34375 233.91015625 196 156 c 4
 196.540039062 85.6572265625 290.048202864 50.9382715874 434 52 c 0
 606.9035995 53.3002457237 698 160.372262774 698 346 c 0
 698 548.711039482 539.286272538 641.901776851 405.504882812 668.212890625 c 0
EndSplineSet
Layer: 2
Layer: 3
EndChar

StartChar: si_Ba
Encoding: 48 3510 50
GlifName: si_B_a
Width: 839
VWidth: -24
Flags: HMW
LayerCount: 4
Back
SplineSet
300.736328125 332.590820312 m 4
 217.364066205 327.5428041 145.991713927 254.524689349 146 146 c 4
 146.008312505 37.1291176186 193.228563837 -3.12230565122 265 -3.2998046875 c 4
 300.143554688 -3.38671875 318.223111383 31.3310514775 318.409179688 57.7451171875 c 4
 318.599609374 84.7783203125 304.728515625 111.390625 262.8828125 110.939453125 c 4
 243.487408886 110.730335821 212.773284167 90.4550728026 213.977539062 55.763671875 c 4
 214.986328125 26.703125 234.446289062 -11.9931640625 282.888671875 -18.09375 c 4
 275.706054688 -29.3828125 l 4
 217.858398438 -27.16796875 169.576651781 16.6269388688 168.389648438 57.98828125 c 4
 166.850585938 111.6171875 212.317505042 157.198953639 267.249023438 157.60546875 c 4
 316.930925751 157.973134612 366.542325324 125.495136148 368.776367188 58.1171875 c 4
 370.512985137 5.74137621885 337.907595856 -53.8620052961 251 -52.787109375 c 4
 134.6171875 -51.34765625 84.2454757936 51.4434966834 87.5234375 157.9375 c 4
 92.1069475383 306.845991597 186.958824892 423.23701967 326.396484375 424.801757812 c 4
 421.767816722 425.871993515 548.081054688 352.131249318 540.779296875 204 c 5
 536.680664062 201.66796875 532.576171875 192.340820312 528.501953125 190 c 5
 496.125 182.859375 467.134705422 155.589843529 467.287109375 114 c 4
 467.38671875 86.8173828125 487.865267042 51.3626687991 549 49.73046875 c 4
 655.110021267 46.8975000995 705.552734374 244.466796875 693 377 c 4
 681.949639497 490.743739617 621.07717536 646.550339561 401 649 c 4
 254.995117187 650.535880442 183 567 180 567 c 5
 137 620 l 4
 137 620 231.178702902 702.440585746 378 710 c 4
 642.89453125 723.638671875 797.85618041 539.036128745 789 302 c 4
 781.198242188 93.185546875 703.6796875 -51.9989757584 552 -52 c 4
 449.589843748 -52.0006915411 401.558251281 18.739595092 401.739257812 82 c 4
 401.946490304 154.426178749 442.963544957 207.851940005 501 231 c 5
 501.300886733 234.132783327 498.762450466 203.118164062 499.032226562 206 c 5
 455.415068302 306.953333236 391.202769416 338.068374259 300.736328125 332.590820312 c 4
EndSplineSet
Fore
SplineSet
310.736328125 329.590820312 m 0
 223.05364923 324.62396591 147.992208519 252.779833658 148 146 c 0
 148.008354141 33.4830685828 194.037885494 -8.13413127925 264 -8.2998046875 c 0
 300.459566463 -8.3881425222 319.231592215 26.8982450239 319.409179688 53.7451171875 c 0
 319.589320765 87.2963043079 299.163968761 113.357353712 266.8828125 112.939453125 c 0
 241.266469876 112.608111378 215.725120122 89.8553525633 216.977539062 50.763671875 c 0
 217.942411169 26.0312752049 236.555195744 -6.90175853559 282.888671875 -12.09375 c 0
 275.706054688 -23.3828125 l 0
 203.248781723 -21.3200678245 179.497333456 19.4680991027 178.389648438 57.98828125 c 0
 176.959563336 113.668669224 219.207161757 155.194937445 270.249023438 155.60546875 c 0
 316.016165413 155.965743473 363.766140341 124.142246717 363.776367188 58.1171875 c 0
 363.784080712 5.71498575319 327.841926515 -53.6422597025 261 -52.787109375 c 0
 145.455850615 -51.3088812278 100.653300908 41.5218625161 98.5234375 137.9375 c 0
 94.8163963858 316.755304062 212.215081522 423.03998091 346.396484375 424.801757812 c 0
 447.316421837 426.12681785 557.740460322 352.131249318 550.779296875 204 c 1
 538.501953125 190 l 1
 506.125 182.859375 477.134705422 155.589843529 477.287109375 114 c 0
 477.38671875 86.8173828125 497.857811244 51.0542530937 559 49.73046875 c 0
 689.847524221 46.8975000995 735.160636727 234.863252738 723 377 c 0
 711.171255989 515.257497173 624.827828245 663.397700077 383 656 c 0
 250.922701123 651.959653398 163.027149321 572 160 572 c 1
 127 620 l 0
 127 620 225.530444794 701.429416424 379 710 c 0
 629.207336545 723.972953048 808.336583762 534.834992635 799 292 c 0
 791.198242188 89.0842602401 713.6796875 -51.9989757584 562 -52 c 0
 459.589843748 -52.0006915411 411.55825128 18.739595092 411.739257812 82 c 0
 411.946490305 154.426178749 452.963544957 207.851940005 511 231 c 1
 511.300886733 234.132783327 508.762450467 203.118164062 509.032226562 206 c 1
 475.415068302 295.774186289 401.214019867 334.716000418 310.736328125 329.590820312 c 0
EndSplineSet
Layer: 2
Layer: 3
EndChar

StartChar: si_Ma
Encoding: 50 3512 52
GlifName: si_M_a
Width: 785
VWidth: -14
Flags: HMW
LayerCount: 4
Back
SplineSet
216 318 m 4
 216 362 221.049804688 407.845703125 185 407 c 4
 133.951171875 405.802734375 102.100585938 334.032226562 107 262 c 4
 115.005942822 144.294927551 228.005739432 56.7358077964 400 60 c 4
 566.975585938 63.1689453125 648.875976562 189.346679688 659 314 c 4
 675 511 562 652 365 655 c 4
 238.999023438 656.918945312 138 581 135 581 c 5
 116 624 l 4
 116 624 230.998046875 706.665039062 378 706 c 4
 599 705 736 549 726 312 c 4
 717.189453125 103.185546875 607 -55 376 -55 c 4
 143 -55 50.5244140625 92.1689453125 48 238 c 4
 45.66015625 373.161132812 106.9375 454.219726562 188 456 c 4
 247.59765625 457.30859375 265.819335938 410.991210938 265.819335938 350 c 4
 265.819335938 250 320.909179688 219.501953125 394 218 c 4
 479.239257812 216.248046875 509 284 509 329 c 4
 509 362.241210938 490.005859375 435.412109375 411 436 c 4
 372.19921875 436.2890625 350.369140625 410.014648438 350 387 c 4
 349.565429688 359.922851562 365 337 398 335.561523438 c 4
 456.053710938 333.03125 463.008789062 399.986328125 450 429.561523438 c 5
 489 418.561523438 l 5
 495.25 365.91796875 477.426757812 289.571289062 396 291 c 4
 350.923828125 291.791015625 304.796643992 319.097679063 304 378.856445312 c 4
 303.331054688 429.036132812 338 480 416 480 c 4
 495 480 559 410 560 334 c 4
 560.650390625 284.58203125 529.993164062 162.740234375 393 161 c 4
 277.6796875 159.53515625 216 232.529296875 216 318 c 4
EndSplineSet
Fore
SplineSet
221 318 m 0
 221 362 213.053710938 407.716796875 176 407 c 0
 123.492385767 405.984250353 102.286585446 329.004659332 107 257 c 0
 115.374923815 140.960559773 222.045626741 47.0197292917 402 48 c 0
 589.131175531 49.0193651127 668.163588502 180.803800187 678 304 c 0
 694.553633218 491 607.099724317 656.364396532 379 659 c 0
 234.40475591 660.790508156 146.277777778 577 143 577 c 1
 108 627 l 0
 108 627 218.187681891 713.634076009 371 713 c 0
 625.615819209 712 757.002962794 518.932906662 745 312 c 0
 735.001204383 118.43549047 643.866855524 -61 395 -61 c 4
 142.763157894 -61 42.64908868 92.9507223596 40 234 c 0
 37.66015625 369.161132812 104.949223142 453.757653742 186 456 c 0
 233.299804688 457.30859375 267.819335938 420.991210938 267.819335938 350 c 0
 267.819335938 257.576171875 312.775348624 229.14560899 381 228 c 0
 463.323828125 226.40625 491.235802757 278.099570109 493 329 c 0
 494.680688301 374.258302924 475.169147845 445.438241914 401 446 c 0
 362.834960938 446.2890625 341.453125 420.012695312 341 396 c 0
 340.623142971 376.029014057 352.101560205 349.252241596 391 349.561523438 c 0
 439.637695312 349.948242188 451.7578125 405.357421875 420 445.561523438 c 1
 462 444.561523438 l 1
 488.451171875 396.206770619 460.056236569 310.515574374 386 312 c 0
 345.823698384 312.805316803 305.156116218 331.78481367 304 390.856445312 c 0
 303.331054688 425.036132812 328 480 406 480 c 0
 488.267412935 480 537.43619725 419.054036182 538 334 c 0
 538.395472701 271.319096425 499.316574627 180.045018826 380 181 c 0
 272.291065838 181.779246003 221 243.416992188 221 318 c 0
EndSplineSet
Layer: 2
SplineSet
185 418 m 5
 143.951171875 386.802734375 119.327148438 320.063476562 122 258 c 4
 127.50390625 130.204101562 246.995117188 60.369140625 380 60 c 4
 574.99609375 59.458984375 658.291992188 192.06640625 664 317 c 4
 673 514 567.998073659 663.87606425 371 667 c 4
 249.99937085 668.918791307 156 595 153 595 c 5
 135 621 l 4
 135 621 239.998046875 706.665039062 387 706 c 4
 608 705 746 549 736 312 c 4
 727.189453125 103.185546875 604 -59 383 -59 c 4
 160 -59 60.4697265625 63.16796875 58 209 c 4
 55.66015625 347.161132812 116.9375 412.219726562 170 451 c 4
 185 450.357449652 l 5
 200.462890625 436 l 5
 197.671875 339.133789062 244.944335938 230.7109375 378 230 c 4
 473.00390625 229.4921875 497 298 497 343 c 4
 497 396.241210938 452.006835938 441.466796875 389 442 c 4
 346.19921875 442.362304688 325.262695312 421.0390625 325 396 c 4
 324.715820312 368.926757812 341 353 370 351.561523438 c 4
 428.037109375 348.682617188 415.008789062 415.986328125 416 445.561523438 c 5
 416.514648438 440.146484375 454.958984375 443.584960938 443 435.561523438 c 5
 459.25 412.91796875 457.431640625 308.831054688 366 310 c 4
 310.922851562 310.704101562 284.73828125 346.096679688 284 385.856445312 c 4
 282.995117188 440.03125 328 481 391 481 c 4
 461 481 542 438 540 334 c 4
 539.049804688 284.586914062 504 184 371 184 c 4
 240.788085938 184 156.149414062 277.543945312 164 419 c 5
 185 418 l 5
EndSplineSet
Layer: 3
EndChar

StartChar: si_Mba
Encoding: 51 3513 53
GlifName: si_M_ba
Width: 785
VWidth: -14
Flags: HW
LayerCount: 4
Back
Fore
SplineSet
547 -43 m 0
 697 -41 747.796875 187.715820312 749 312 c 0
 751.002929688 518.932617188 615.616210938 712 361 713 c 0
 208.1875 713.633789062 98 627 98 627 c 0
 133 577 l 1
 136.27734375 577 224.404296875 660.790039062 369 659 c 0
 597.099609375 656.364257812 687.206345173 491.041975878 682 304 c 0
 679.158203125 201.90625 630 73 542 66 c 0
 492.749023438 62.08203125 442.45703125 86.8037109375 439 114.466796875 c 1
 441.262695312 131.123046875 481 144.715820312 481 176 c 0
 481 212 445.00390625 241.72265625 378 243 c 0
 306.004882812 244.372070312 263.030273438 209.595703125 262 173 c 0
 261.123046875 141.845703125 305.201171875 134.467773438 306 109.828125 c 1
 300.211914062 76.7744140625 252.870307345 52.5873918255 195 64 c 0
 136.89453125 75.458984375 96.5343575447 128.016692075 93 197 c 0
 88.2861328125 289.004882812 124.4921875 376.984375 177 378 c 0
 214.053710938 378.716796875 221 342 221 298 c 0
 221 253.416992188 262.29296875 192.036132812 380 191 c 0
 479.317150613 190.125746716 524.734860563 261.403187476 528 324 c 0
 532.436523438 409.053710938 470.267578125 469 398 469 c 0
 320 469 290.331054688 407.036132812 291 372.856445312 c 0
 292.15625 313.78515625 335.821429332 288.709522358 376 288 c 0
 460.056640625 286.515625 478.451171875 376.20703125 452 424.561523438 c 1
 410 429.561523438 l 1
 441.7578125 389.357421875 425.637222213 329.992928269 379 329.561523438 c 4
 344.101856843 329.238707737 330.623046875 356.029296875 331 376 c 0
 331.453125 400.012695312 353.834960938 429.2890625 392 429 c 0
 466.168945312 428.438476562 488.58203125 364.216796875 486 319 c 0
 484.235351562 288.099609375 460.32421875 241.40625 378 243 c 0
 309.775390625 244.145507812 267.819335938 267.576171875 267.819335938 320 c 0
 267.819335938 390.991210938 229.299804688 427.30859375 182 426 c 0
 100.94921875 423.7578125 27.66015625 329.161132812 30 194 c 0
 31.64453125 99.0185546875 69.3335958897 -40.1768710565 205 -42 c 0
 286.10521433 -43.0899180581 334.119140625 18 352 119 c 1
 352.505859375 119.758789062 310 147 318 164 c 24
 329 186 372.327148438 192.34765625 375 192 c 1
 377.626953125 191.658203125 419 185 425 167 c 24
 431 149 392.427734375 118.142578125 393 119 c 1
 408 15 460.23828125 -44.1572265625 547 -43 c 0
EndSplineSet
Layer: 2
Layer: 3
EndChar

StartChar: si_Ya
Encoding: 52 3514 54
GlifName: si_Y_a
Width: 850
VWidth: -24
Flags: HW
HStem: -35 99<182.222 313.468 494.493 645.379> 126 89<373 424.052> 361 51<198.094 337.786> 501 56<538.302 659.872>
VStem: 51 71<122.458 276.578> 373 57<129.35 215> 449 61<347.668 472.518> 677 70<371.463 483.193> 701 70<120.302 268.428>
AnchorPoint: "si_hal" 692 518 basechar 0
LayerCount: 4
Back
SplineSet
514 363 m 1
 502 381 l 1
 598 407 771 371 771 186 c 0
 771 64 690 -35 565 -35 c 0
 440 -35 398 61 383 126 c 1
 381 123 430 129 428 126 c 1
 401 25 338 -34 237 -34 c 0
 101 -35 50 65 51 164 c 0
 52 348 177 412 274 412 c 0
 300 412 328 409 352 399 c 1
 340 349 l 1
 313 354 290 364 259 361 c 0
 199 355 122 327 122 194 c 0
 122 114 178 68 246 69 c 0
 306 70 382 91 382 215 c 1
 440 215 l 1
 436 91 504 64 574 64 c 0
 668 64 700 129 701 195 c 0
 702 281 625 367 458 332 c 1
 453 351 449 368 449 388 c 0
 447 500 529 557 603 557 c 0
 670 557 737 522 737 442 c 0
 737 346 654 320 654 320 c 1
 638 327 l 1
 638 327 676 381 677 430 c 0
 677 468 658 500 599 501 c 0
 553 502 515 473 510 421 c 0
 506 375 520 347 520 347 c 1
 514 363 l 1
EndSplineSet
Fore
SplineSet
518 366 m 1
 644 408.363636364 801 354.313131313 801 188 c 0
 801 46 732 -53 597 -53 c 0
 452 -53 415 43 413 108 c 1
 411 105 446 111 444 108 c 1
 437 27 370.996407062 -51.229662793 260 -52 c 4
 128.998046875 -52.8431908392 41.6802444162 49.0855640594 41 178 c 0
 40.2575901402 339.895725417 152.061037251 459.769355609 284 464 c 0
 310.005857815 464.833882079 337 463 361 453 c 1
 352 393 l 5
 319.175 407.4 293.925 409.9 251 406 c 0
 194.886243318 400.891425378 107.505628084 348.333639887 109 219 c 0
 110.093537494 124.960258392 172.356670673 62.505312965 266 61 c 0
 335.959436003 59.7965625986 396 93 398 197 c 1
 454 197 l 1
 454 100 524 56 604 56 c 0
 701.377952756 56 739.921259843 121 741 197 c 0xfe80
 742.178123647 271.054151619 682.695473251 370.611111111 488 321 c 1
 483 349.743589744 480.703199991 349.853360165 479 380 c 0
 469.584795322 484.619047619 553.388392041 548.891720403 640 549 c 0
 711.204960507 549.0868898 777 514 777 434 c 0
 777 338 684 312 684 312 c 1
 658 329 l 1
 658 329 709.208984375 342.997070312 710 402 c 0
 710.643554688 449.994140625 659.1015625 479.125 615 479 c 0
 569.095703125 478.870117188 528 453 523 401 c 0
 519 355 536 339 536 339 c 1
 518 366 l 1
EndSplineSet
Layer: 2
Layer: 3
EndChar

StartChar: si_La
Encoding: 54 3517 55
GlifName: si_L_a
Width: 904
VWidth: -5
Flags: HMW
AnchorPoint: "si_hal" 642 516 basechar 0
LayerCount: 4
Back
SplineSet
295 348 m 1
 611 348 l 1
 611 294 l 1
 295 294 l 1
 295 348 l 1
610 295 m 1
 529 295 507 262 507 229 c 0
 508 188 565 167 615 168 c 0
 698 170 741 225 741 300 c 0
 741 399 642 507 477 508 c 0
 294 509 177 357 173 165 c 0
 169 -45 280 -191 481 -193 c 0
 600.998046875 -194.194335938 706 -132 752 -83 c 0
 786 -122 l 0
 747 -174 613.999023438 -262.51171875 460 -262 c 0
 159 -261 46.328125 -82.7841796875 57 144 c 0
 69 399 248 564 481 564 c 0
 695 564 809 432 809 306 c 0
 809 162 722 77 602 77 c 0
 499 77 447 150 446 213 c 0
 445 273 488 323 528 327 c 1
 610 295 l 1
EndSplineSet
Fore
SplineSet
335 348 m 1
 423.666666667 343.597091159 512.333333333 346.289854019 601 348 c 1
 601 294 l 1
 335 294 l 1
 335 348 l 1
600 295 m 1
 527.709677419 295 517 262 517 239 c 0
 517 197.987806691 575.00875944 176.630376971 625 178 c 0
 710.586206897 180 761 225 761 300 c 0
 761 399 658.693415076 507.187187053 481 508 c 4
 274.045454545 509 173.654415639 336.822300348 167 155 c 0
 160.519570553 -40.5827833894 248.232823303 -185.606766484 435 -214 c 0
 602.559568801 -240.061044827 716.104761905 -142.361963659 765 -81 c 0
 816 -142 l 0
 773.174050633 -197.939393939 644.698471745 -288.024550293 469 -284 c 0
 214.469109145 -278.687236169 57.8471460151 -114.989768908 57 134 c 0
 56.0874077445 389.000327795 250 564 493 564 c 4
 720.544303797 564 829 422 829 296 c 0
 829 152 733.594202899 77 602 77 c 0
 499 77 447.049986445 150.000813271 446 213 c 0
 445 273 488 323 528 327 c 1
 600 295 l 1
EndSplineSet
Layer: 2
Layer: 3
EndChar

StartChar: si_Sha
Encoding: 56 3521 56
GlifName: si_S_ha
Width: 959
VWidth: -24
Flags: HW
HStem: -44.0049 124.96<223.948 425.742> -41.8145 49.4268<586.935 736.187> 451.533 105.07<546.482 723.91> 501.88 50.1201<251.545 337>
VStem: 53.9951 67.9795<179.847 355.129> 822.623 86.2471<136.969 353.147>
AnchorPoint: "si_hal" 720 511 basechar 0
LayerCount: 4
Back
Fore
SplineSet
873.330078125 287.131835938 m 5
 870.3828125 202.45703125 l 5
 843.862304688 208.05078125 753.356445312 180.313476562 729 144 c 0
 684.297851562 74.296875 741.688476562 25.1318359375 684.94140625 -23.029296875 c 1
 639.595703125 -14.3720703125 l 1
 679.584960938 40.443359375 625.141601562 100.857421875 669.78515625 176.172851562 c 0
 718.65634084 258.620458894 844.76953125 237.546875 873.330078125 287.131835938 c 5
700.759765625 17.6123046875 m 0x6c
 803.730012091 29.5855891603 856.623046875 108.114257812 856.623046875 229.600585938 c 0
 856.623046875 353.83984375 776.359375 445.533203125 636.9375 445.533203125 c 0
 556.0703125 445.533203125 445.365531913 397.33234502 438.877929688 254.823242188 c 1
 388.610351562 238.01171875 l 1
 384.657226562 437.1640625 515.451171875 542.603515625 655.6796875 542.603515625 c 0
 827.643554688 542.603515625 920.870117188 411.889648438 920.870117188 267.375 c 0
 920.870117188 101.1640625 836.109375 -54.5166015625 664.411132812 -55.814453125 c 0
 613.534972106 -56.1990214457 573.655273438 -45.9150390625 555.682617188 -36.138671875 c 1
 580.452148438 40.328125 l 1
 602.016601562 24.771484375 657.087890625 12.5341796875 700.759765625 17.6123046875 c 0x6c
111.974609375 245.841796875 m 0
 111.224947768 128.711194652 180.21484375 50.8837890625 308 47.5908203125 c 0
 414.426757812 44.8486328125 485.633025268 87.9111518545 488 160 c 0
 489.319040698 200.172851562 462.767578125 237 389 237 c 1
 440 291 l 1
 489 290 551.65234375 244.21484375 552 160 c 0
 552.451171875 47.953125 473.594726562 -55.0048828125 308.598632812 -55.0048828125 c 0
 140.69140625 -55.0048828125 53.9951171875 61.9140625 53.9951171875 221.564453125 c 0
 53.9951171875 428.865278548 210.2890625 536 337 538 c 0
 344.879882812 462.879882812 l 0x9c
 249.916015625 462.879882812 113.059980801 415.425256344 111.974609375 245.841796875 c 0
EndSplineSet
Layer: 2
Layer: 3
EndChar

StartChar: si_Ssa
Encoding: 57 3522 57
GlifName: si_S_sa
Width: 776
VWidth: -24
Flags: HW
LayerCount: 4
Back
Fore
SplineSet
502 352 m 1
 452 333 l 1
 444 358 437 375 437 417 c 0
 438 503 509 556 580 556 c 0
 653 556 705 507 705 427 c 0
 705 359 618 309 618 309 c 1
 582 326 l 1
 616.051757812 347.129882812 650.883789062 377.10546875 651 417 c 0
 651.133789062 463 617 494 568 494 c 0
 521 494 477 452 477 409 c 0
 477 357 502 352 502 352 c 1
119 209 m 0
 118 124 203 45 388 45 c 0
 563 45 663.451171875 127.008789062 665 216 c 0
 666.775390625 318.00390625 549 348 452 333 c 1
 472 373 l 1
 617 402 740 331 736 193 c 0
 731 29 564 -59 383 -59 c 0
 189 -59 38 33 40 180 c 0
 42 339 208 394 316 384 c 1
 292 345 l 1
 299 365 312.373046875 386.33203125 308 415 c 0
 299 474 239 505 171 490 c 0
 204 511 l 1
 149 409 l 1
 108 411 81.6005859375 436.013671875 83 471 c 0
 85 521 142 557 202 557 c 0
 272 557 344 517 346 439 c 0
 347 402 341 370 332 333 c 1
 208 351 120 287 119 209 c 0
643 323 m 17
 552.790039062 270.456054688 517.520507812 251.149414062 394 246 c 0
 351.989257812 244.25 282.380859375 241.991210938 281 190 c 0
 280.303710938 163.78515625 317.396484375 137.823242188 384 138 c 0
 432.355535376 138.128329842 484.206054688 161.149414062 484.284179688 202 c 4
 484.34765625 235.018554688 455.28515625 252.201171875 443 260 c 1
 487 290 l 1
 486.64453125 268.418945312 533.721679688 261.372070312 534.859375 195 c 0
 535.775855403 141.533398617 478.859285171 95.9100774311 384 94 c 0
 279.781839008 91.9014731467 228.940429688 135.838867188 230 190 c 0
 231.369140625 259.994140625 314.18359375 277.727539062 384 281 c 0
 542.53515625 288.431640625 569.885742188 327.166015625 616 345.561523438 c 9
 643 323 l 17
EndSplineSet
Layer: 2
Layer: 3
EndChar

StartChar: si_Ha
Encoding: 59 3524 58
GlifName: si_H_a
Width: 959
VWidth: -24
Flags: HW
HStem: -44.0049 124.96<223.948 425.742> -41.8145 49.4268<586.935 736.187> 451.533 105.07<546.482 723.91> 501.88 50.1201<251.545 337>
VStem: 53.9951 67.9795<179.847 355.129> 822.623 86.2471<136.969 353.147>
AnchorPoint: "si_hal" 710 511 basechar 0
LayerCount: 4
Back
Fore
SplineSet
311 336 m 1
 328.684322621 423.088989699 272.3515625 479.735351562 175 471 c 1
 125 389 l 1
 95 392 71 409 71 446 c 0
 71 513 143 538 196 538 c 0
 276 538 351.656131768 488.983120729 356 404 c 0x8c
 358.56640625 353.791015625 349 331.083007812 342 309 c 1
 311 336 l 1
684.759765625 23.6123046875 m 0x6c
 788.125976562 31.466796875 828.623046875 108.114257812 828.623046875 229.600585938 c 0
 828.623046875 353.83984375 764.189453125 439.645507812 644.9375 446.533203125 c 0
 564.106156871 451.201819853 435.365234375 387.33203125 448.877929688 244.823242188 c 1
 401.610351562 234.01171875 l 1
 387.657226562 423.1640625 516.451171875 542.603515625 656.6796875 542.603515625 c 0
 818.643554688 542.603515625 892.870117188 411.889648438 892.870117188 267.375 c 0
 892.870117188 81.1640625 803.104492188 -43.9921875 641.411132812 -45.814453125 c 0
 600.536132812 -46.275390625 570.655273438 -36.9150390625 552.682617188 -27.138671875 c 1
 578.452148438 49.328125 l 1
 600.016601562 33.771484375 631.087890625 19.5341796875 684.759765625 23.6123046875 c 0x6c
103.974609375 186.841796875 m 0
 102.698242188 99.71484375 181.201171875 54.4248046875 299 51.5908203125 c 0
 404.431640625 49.0537109375 471.6328125 82.9111328125 474 155 c 0
 475.319335938 195.172851562 447.767578125 229 402 233 c 1
 445 281 l 1
 486 272 536.65234375 236.21484375 537 152 c 0
 537.451171875 39.953125 459.594726562 -48.0048828125 294.598632812 -48.0048828125 c 0
 136.69140625 -48.0048828125 46.9951171875 21.9140625 46.9951171875 151.564453125 c 0
 46.9951171875 318.865234375 190.2890625 380 337 372 c 0
 340.879882812 309.879882812 l 0x9c
 215.916015625 329.879882812 105.43359375 286.419921875 103.974609375 186.841796875 c 0
EndSplineSet
Layer: 2
Layer: 3
EndChar

StartChar: si_Lla
Encoding: 60 3525 59
GlifName: si_L_la
Width: 904
VWidth: -5
Flags: HW
AnchorPoint: "si_hal" 642 516 basechar 0
LayerCount: 4
Back
Fore
SplineSet
335 348 m 1
 423.666666667 343.597091159 512.333333333 346.289854019 601 348 c 1
 601 294 l 1
 335 294 l 1
 335 348 l 1
600 295 m 1
 527.709677419 295 517 262 517 239 c 0
 517 197.987806691 575.00875944 176.630376971 625 178 c 0
 710.586206897 180 761 225 761 300 c 0
 761 399 658.693415076 507.187187053 481 508 c 4
 274.045454545 509 173.654415639 336.822300348 167 155 c 0
 160.519570553 -40.5827833894 248.232823303 -185.606766484 435 -214 c 0
 602.559568801 -240.061044827 716.104761905 -142.361963659 765 -81 c 0
 816 -142 l 0
 773.174050633 -197.939393939 644.698471745 -288.024550293 469 -284 c 0
 214.469109145 -278.687236169 57.8471460151 -114.989768908 57 134 c 0
 56.0874077445 389.000327795 250 564 493 564 c 4
 720.544303797 564 829 422 829 296 c 0
 829 152 733.594202899 77 602 77 c 0
 499 77 447.049986445 150.000813271 446 213 c 0
 445 273 488 323 528 327 c 1
 600 295 l 1
EndSplineSet
Layer: 2
Layer: 3
EndChar

StartChar: si_Fa
Encoding: 61 3526 60
GlifName: si_F_a
Width: 852
VWidth: -24
Flags: HW
LayerCount: 4
Back
Fore
SplineSet
363 -13 m 1
 333.881835938 -25.3193359375 298.634765625 -34.6181640625 248 -33.93359375 c 0
 107.943359375 -32.0400390625 34 85.7525887482 34 228 c 0
 34 384 121.999997703 520.000156233 258 522 c 0
 382.986328125 523.837890625 431 437 433 362 c 1
 435 365 400 359 402 362 c 1
 409 443 482.002929688 521.33203125 583 522 c 0
 734.000976562 522.999023438 796.434570312 373.00390625 797 254 c 0
 797.831054688 78.9990234375 708.955078125 -30.02734375 592 -33 c 0
 555.997070312 -33.9150390625 510 -27 486 -17 c 1
 505 45 l 1
 531 23 570 17 604 20 c 0
 664.065429688 25.2998046875 727.599609375 89.994140625 726 224 c 0
 724.805664062 323.990234375 678.046875 407.399414062 580 409 c 0
 510.039535505 410.142083678 450 357 448 273 c 1
 392 273 l 1
 392 370 321.948278846 416.881019058 252 414 c 0
 141.022045076 409.429056892 106.696289062 303.002929688 104 219 c 0xfe80
 100.829101562 120.224609375 142.603515625 20.6630859375 259 20 c 0
 285.412109375 19.849609375 311.651367188 22.8125 344 45 c 1
 363 -13 l 1
EndSplineSet
Layer: 2
Layer: 3
EndChar

StartChar: si_Halant
Encoding: 62 3530 61
GlifName: si_H_alant
Width: -3
VWidth: -36
Flags: W
VStem: -22 49<521.518 686 711.097 866>
AnchorPoint: "si_hal" -4 513 mark 0
LayerCount: 4
Back
SplineSet
27 866 m 1
 27 820.333333333 27 774.666666667 27 729 c 1
 43 708 61.9816697278 706.276759429 75 707 c 0
 93 708 108 727 105 767 c 0
 102 806 74 850 27 866 c 1
5 685 m 1
 4.828125 683.069335938 24.6865234375 688.06640625 24.572265625 686 c 1
 22.0244140625 639.911132812 33.3857421875 532.184570312 42 514 c 5
 -17 514 l 5
 -24 565 -22 670 -22 737 c 1
 -23 920 l 1
 53 911 168 868 164 743 c 0
 162 689 124.046875 657 81 657 c 0
 40 657 14 679 5 685 c 1
EndSplineSet
Fore
SplineSet
27 866 m 1
 27 820.333333333 27 774.666666667 27 729 c 1
 43 708 61.9816697278 706.276759429 75 707 c 0
 93 708 108 727 105 767 c 0
 102 806 74 850 27 866 c 1
5 685 m 1
 4.828125 683.069335938 24.6865234375 688.06640625 24.572265625 686 c 1
 22.0244140625 639.911132812 33.3857421875 532.184570312 42 514 c 5
 -17 514 l 5
 -24 565 -22 670 -22 737 c 1
 -23 920 l 1
 53 911 168 868 164 743 c 0
 162 689 124.046875 657 81 657 c 0
 40 657 14 679 5 685 c 1
EndSplineSet
Layer: 2
Layer: 3
EndChar

StartChar: si_MatraAa
Encoding: 63 3535 62
GlifName: si_M_atraA_a
Width: 362
VWidth: -11
Flags: HW
HStem: -33 51<71.2941 175.26> 447 52<71.5288 174.539>
VStem: -3 43<390.233 413.688> 225 97<114.561 378.943>
LayerCount: 4
Back
SplineSet
-7 398 m 9
 30 376 l 17
 36 402 67 446 115 446 c 0
 180 445 226 383 225 238 c 0
 224 140 197 20 121 18 c 0
 67 17 48 47 28 76 c 9
 -7 47 l 17
 7 12 45 -35 121 -33 c 0
 267 -29 321 136 322 240 c 0
 324 381 274 500 141 499 c 0
 74 498 15 461 -7 398 c 9
EndSplineSet
Fore
SplineSet
-3 403 m 9
 50 376 l 17
 56 412 94 454 135 454 c 0
 208.0078125 454 238 356 235 231 c 0
 232.6484375 133.022460938 209.006835938 15.7275390625 141 14 c 0
 97.0029296875 12.8828125 67 46 57 83 c 9
 3 47 l 17
 17 12 55 -35 131 -33 c 0
 277 -29 319.050695549 136.037018111 322 240 c 0
 326 381 272 500 145 499 c 0
 77.994140625 498.47265625 18 459 -3 403 c 9
EndSplineSet
Layer: 2
Layer: 3
EndChar

StartChar: si_MatraAe
Encoding: 64 3536 63
GlifName: si_M_atraA_e
Width: 334
VWidth: -11
Flags: HW
HStem: -33 51<71.2941 175.26> 447 52<71.5288 174.539>
VStem: -3 43<390.233 413.688> 225 97<114.561 378.943>
LayerCount: 4
Back
Fore
SplineSet
129 96 m 0
 108.937498481 8.48891151425 122.063425881 -89.5736423942 224 -97 c 0
 287.692273806 -101.640155961 319 -71.2121212121 342 -51 c 1
 363 -73 l 1
 348.113924051 -116.75 275.827797845 -174.842187229 195 -173 c 0
 58.0683229814 -169.879120879 29.5499548334 -73.2339353014 44 40 c 0
 59.9681409497 165.130089099 156.34913573 275.707932692 194.163085938 312 c 1
 157.006773612 309.588265085 85.1706532157 306.2226687 39 303.856445312 c 5
 40 359.116210938 l 1
 59.1692471591 359.107124556 216.911505681 358.998264912 245 359 c 1
 245 303 l 1
 195.87639509 268.367535252 146.067254194 170.446050038 129 96 c 0
EndSplineSet
Layer: 2
Layer: 3
EndChar

StartChar: si_MatraAae
Encoding: 65 3537 64
GlifName: si_M_atraA_ae
Width: 347
VWidth: -11
Flags: HW
HStem: -33 51<56.2941 160.26> 447 52<56.5288 159.539>
VStem: -18 43<390.233 413.688> 210 97<114.561 378.943>
LayerCount: 4
Back
Fore
SplineSet
35 362 m 1
 229 362 l 1
 229 328 l 1
 47 273 l 1
 25 289 l 1
 173 334 l 1
 35 334 l 1
 35 362 l 1
126 88 m 0
 107.103515625 4.6083984375 111.1640625 -90.5087890625 209 -97 c 0
 272.720703125 -101.227539062 304 -71.2119140625 327 -51 c 1
 348 -73 l 1
 333.114257812 -116.75 260.828125 -174.841796875 180 -173 c 0
 43.068359375 -169.87890625 9.22265625 -72.42578125 29 40 c 0
 48.04296875 148.252929688 147.811523438 232.37890625 199.163085938 262 c 1
 157.2421875 261.661132812 77.0908203125 261.188476562 25 260.856445312 c 1
 25 289.116210938 l 1
 44.3017578125 289.107421875 210.717773438 288.998046875 239 289 c 1
 239 253 l 1
 193.961914062 225.39453125 141.814453125 157.787109375 126 88 c 0
EndSplineSet
Layer: 2
Layer: 3
EndChar

StartChar: si_MatraI
Encoding: 66 3538 65
GlifName: si_M_atraI_
Width: 362
VWidth: -11
Flags: W
HStem: 531 35<-202.188 -181.6> 703 97<-159.243 141.33>
LayerCount: 4
Back
SplineSet
-165 409 m 13
 -143 446 l 21
 -169 452 -213 484 -213 538 c 4
 -214 603 -145 642 0 641 c 4
 98 640 203 609 205 543 c 4
 206 489 176 462 147 442 c 13
 176 407 l 21
 211 421 258 461 256 537 c 4
 252 683 102 737 -2 738 c 4
 -143 740 -267 690 -266 557 c 4
 -265 490 -228 429 -165 409 c 13
EndSplineSet
Fore
Refer: 62 3535 N 1 0 0 1 0 0 2
Layer: 2
Layer: 3
EndChar

StartChar: si_MatraIi
Encoding: 67 3539 66
GlifName: si_M_atraI_i
Width: 0
VWidth: -28
Flags: W
HStem: 409 37<-19 -3> 641 97<10 271>
VStem: -109 54<478 593> 362 51<474 588>
AnchorPoint: "si_MaI" 0 559 mark 0
LayerCount: 4
Back
Fore
SplineSet
-185 531 m 21
 -248 551 -291.833007812 588.24609375 -286 655 c 4
 -277 758 -139 802 2 800 c 4
 106 799 249.903320312 764.702148438 266 659 c 4
 275.955078125 593.627929688 231 543 196 529 c 13
 177 554 l 21
 200 574 214.749023438 594.73046875 205 635 c 4
 190.84375 693.477539062 68 701.96875 0 703 c 4
 -94.994140625 704.44140625 -214 706 -223 641 c 4
 -230.40625 587.510742188 -191 576 -168 566 c 13
 -185 531 l 21
EndSplineSet
Layer: 2
Layer: 3
EndChar

StartChar: si_MatraU
Encoding: 68 3540 67
GlifName: si_M_atraU_
Width: 0
VWidth: 0
Flags: W
HStem: -370.587 85.3398<-418.305 -35>
VStem: -546 118.19<-273.371 -204.358> -35 63<-287 169>
AnchorPoint: "si_MaU" 22 169.28 mark 0
LayerCount: 4
Back
Fore
SplineSet
-388 -115 m 17
 -361.227539062 -160 l 1
 -361.23046875 -152.99609375 -427.812711241 -191.887525396 -427.809570312 -226 c 0
 -427.80528394 -272.552734178 -403.698875123 -285.247071992 -352 -285.247070312 c 1
 -35 -287 l 9
 -35 169 l 25
 22 169 l 25
 28 -367 l 17
 28 -367 -247.995117188 -369.6796875 -424 -370.586914062 c 0
 -504 -371 -545.244140625 -321.6015625 -546 -271 c 0
 -547.62890625 -161.938476562 -388 -115 -388 -115 c 17
EndSplineSet
Layer: 2
Layer: 3
EndChar

StartChar: si_MatraUu
Encoding: 69 3542 68
GlifName: si_M_atraU_u
Width: 0
VWidth: 0
Flags: W
AnchorPoint: "si_MaU" -1 164 mark 0
LayerCount: 4
Back
Fore
SplineSet
-448 -165 m 25
 -436 -251 l 25
 88 -247 l 25
 82 129 l 25
 -5 129 l 25
 -5 -167 l 25
 -448 -165 l 25
EndSplineSet
Layer: 2
Layer: 3
EndChar

StartChar: si_MatraE
Encoding: 71 3545 70
GlifName: si_M_atraE_
Width: 573
VWidth: -10
Flags: HW
HStem: 321 44<335 364.551> 485 51<246.533 456.728>
VStem: 233 51<213.173 299.922> 381 48<214.138 304.992>
LayerCount: 4
Back
SplineSet
321 157 m 0
 263.09765625 160.356445312 233 204 233 247 c 0
 233 321 297.996232903 364.285672889 366 365 c 0
 457.000474036 365.955889776 551 305 546 172 c 0
 542 72 461 -44 295 -44 c 0
 121 -44 29 78 38 244 c 0
 48 418 172.997006015 536 340 536 c 0
 456 536 519 479 519 479 c 0
 497 442 l 1
 495 442 431 493 334 492 c 0
 208 490 112 395 112 248 c 0
 112 148 166.99662166 46 313 46 c 0
 415 46 481 101 486 172 c 0
 492.13137524 259.065528412 431 314 362 313 c 0
 308 312 284 287 284 253 c 0
 284 229 302 206 330 206 c 0
 363 206 381 231 381 256 c 0
 381 293 352 314 345 314 c 1
 372 320 404.418945312 313.581054688 406 312 c 0
 415 303 429 282 429 253 c 0
 429 208 390 153 321 157 c 0
EndSplineSet
Fore
SplineSet
321 157 m 0
 263.080620987 160.048388369 233 204 233 247 c 0
 233 321 295.996232903 364.285672889 366 365 c 0
 457.000756775 365.928582995 551 305 546 172 c 0
 542 72 468 -44 302 -44 c 0
 125 -44 23.802590005 78.3635500578 38 244 c 0
 53 419 173.997070312 536 341 536 c 0
 457 536 520 479 520 479 c 0
 491 435 l 1
 489 435 439 496 332 495 c 4
 205.989257812 493.822265625 115 405 112 258 c 0
 109.959614848 158.021127571 171.190846835 64.1616407008 302 56 c 0
 383.952148438 50.88671875 472 86 487 174 c 0
 501.666015625 260.040039062 432 320 363 319 c 0
 309 318 284 287 284 253 c 0
 284 229 302.012846984 206.848095546 330 206 c 0
 363 205 381 231 381 256 c 0
 381 297 342 321 335 321 c 1
 362 327 394.418945312 324.581054688 396 323 c 0
 405 314 429 300 429 253 c 0
 429 208 397 153 321 157 c 0
EndSplineSet
Layer: 2
Layer: 3
EndChar

StartChar: si_VI
Encoding: 365 -1 79
GlifName: si_V_I_
Width: 726
VWidth: -14
Flags: HW
LayerCount: 4
Back
SplineSet
92.1494140625 693.880859375 m 0
 72.1494140625 830 233.120117188 859 364 859 c 0
 586.331054688 859 659.389648438 774.221679688 668 697 c 0
 677.753408289 609.526850353 643.574014414 559.895032663 574 526 c 25
 542 572 l 25
 562 608 580.004882812 643.44140625 572 684 c 0
 560.174255446 743.917875177 447 790 370 791 c 24
 255.20703125 792.114257812 151.95703125 773.48046875 165.40625 703.064453125 c 4
 170.092773438 678.52734375 204.534179688 620.26953125 333 630 c 0
 549.3828125 646.389648438 680 537 680 321 c 0
 680 107 567 -56 321 -58 c 0
 185 -59 46 8 46 137 c 0
 46 291 205 335 327 328 c 1
 337 388 304 438 212 438 c 1
 186 357 l 1
 135 350 100 379 109 425 c 0
 119 481 177 501 224 501 c 0
 300 501 383 469 384 359 c 0
 384 323 376 272 376 272 c 1
 230 288 127 252 129 158 c 0
 130 94 203 42 343 43 c 0
 512 44 609 173 609 326 c 0
 609 510 515.472834748 583.433285344 322 569 c 0
 176.643554688 558.15625 104.331437334 610.970532437 92.1494140625 693.880859375 c 0
EndSplineSet
Fore
SplineSet
376 274 m 1
 230 290 125 245 129 158 c 0
 131.939453125 94.0595703125 204.999023438 55.1953125 345 56 c 0
 519 57 618 173 618 326 c 0
 680 321 l 0
 680 107 571.001953125 -56.423828125 335 -58 c 0
 179 -59.0419921875 49.349609375 8.0439453125 46 137 c 0
 42 291 219 325 341 318 c 1
 351 378 304 428 212 428 c 1
 186 347 l 1
 135 340 100 369 109 415 c 0
 119 471 177 490 224 490 c 0
 300 490 380 453 384 349 c 0
 385.383789062 313.026367188 376 274 376 274 c 1
EndSplineSet
Refer: 561 -1 S 1 0 0 1 0 0 2
Layer: 2
Layer: 3
Ligature2: "si_abvs_1 subtable" si_Va si_MatraI
LCarets2: 1 0
Ligature2: "'abvs' Above Base Substitutions in Sinhala lookup 0-1" si_Va si_MatraI
EndChar

StartChar: si_KU
Encoding: 92 -1 89
GlifName: si_K_U_
Width: 1085
VWidth: -24
Flags: HW
LayerCount: 4
Back
Fore
SplineSet
796 9 m 0xb0
 905.836914062 22.0703125 941.120117188 174.231445312 915 279 c 0
 885.174804688 398.631835938 760.228515625 466.868164062 625 462 c 0
 525.9140625 458.697265625 448.959960938 431.771484375 355 374 c 1
 338 362 349 367 335 355 c 1
 238 276 156 211 56 79 c 1
 56 79 21.126953125 98.5439453125 27 107 c 0
 127 251 217 322 315 413 c 1
 322 419 331 420 338 425 c 1
 435.860351562 505 556.172851562 555.573242188 672 561 c 0
 861.928710938 570.465820312 1001 450 1015 282 c 0
 1028.55566406 112.560546875 927.639648438 -33 775 -33 c 0
 796 9 l 0xb0
288 377 m 1x30
 300 400 304 421 303 439 c 0
 301 481 264.760742188 505.678710938 215 501 c 0
 180.934570312 497.796875 145 470 151 426 c 1
 191 371 l 1
 177 347 154.001953125 335.022460938 132 336 c 0
 87 338 67 369 67 415 c 0
 67 495 133.983398438 563.181640625 231 559 c 0
 313.926757812 555.42578125 363 480 336 416 c 0
 321 380 336 404 323 387 c 1
 288 377 l 1x30
107 165 m 1
 115 169 124 172 131 172 c 0
 179 173 188 72 271 72 c 0
 320 72 370 101 371 197 c 1
 406 197 l 0
 407 94 466.997070312 71.1669921875 527 72 c 0
 587.002929688 72.8330078125 638 118 638 194 c 0
 638 273 566 340 452 345 c 0
 390.059570312 347.716796875 314 329 281 311 c 1
 335 364 l 1
 348 368 381.99609375 390.330078125 459 391 c 0
 574 392 696 332 696 182 c 0
 696 48 620.995117188 -34.9423828125 516 -36 c 0
 430.693359375 -36.859375 397.721679688 8.326171875 379 49 c 1
 397 49 l 1
 379.737304688 7.81640625 336.954101562 -36 272 -36 c 0
 113.997070312 -36 160 169 95 130 c 0
 107 165 l 1
EndSplineSet
Refer: 576 -1 S 1 0 0 1 795 1 2
Layer: 2
Layer: 3
LCarets2: 1 0
Ligature2: "si_blws_1 subtable" si_Ka si_MatraU
EndChar

StartChar: si_GU
Encoding: 111 -1 108
GlifName: si_G_U_
Width: 959
VWidth: -24
Flags: HW
LayerCount: 4
Back
Fore
SplineSet
665.759765625 8.6123046875 m 0x6c
 798.73046875 0.5859375 856.623046875 108.114257812 856.623046875 229.600585938 c 0
 856.623046875 353.83984375 776.359375 445.533203125 636.9375 445.533203125 c 0
 556.0703125 445.533203125 445.365234375 397.33203125 438.877929688 254.823242188 c 1
 388.610351562 238.01171875 l 1
 384.657226562 437.1640625 515.451171875 542.603515625 655.6796875 542.603515625 c 0
 827.643554688 542.603515625 920.870117188 411.889648438 920.870117188 267.375 c 0
 920.870117188 101.1640625 847.109375 -54.5166015625 664.411132812 -45.814453125 c 4
 665.759765625 8.6123046875 l 0x6c
111.974609375 245.841796875 m 0
 111.224609375 128.7109375 180.21484375 50.8837890625 308 47.5908203125 c 0
 414.426757812 44.8486328125 485.6328125 87.9111328125 488 160 c 0
 489.319335938 200.172851562 462.767578125 237 389 237 c 1
 440 291 l 1
 489 290 551.65234375 244.21484375 552 160 c 0
 552.451171875 47.953125 473.594726562 -55.0048828125 308.598632812 -55.0048828125 c 0
 140.69140625 -55.0048828125 53.9951171875 61.9140625 53.9951171875 221.564453125 c 0
 53.9951171875 428.865234375 210.2890625 536 337 538 c 0
 344.879882812 462.879882812 l 0x9c
 249.916015625 462.879882812 113.059570312 415.424804688 111.974609375 245.841796875 c 0
EndSplineSet
Refer: 576 -1 N 1 0 0 1 665 1 2
Layer: 2
Layer: 3
LCarets2: 1 0
Ligature2: "si_blws_1 subtable" si_Ga si_MatraU
EndChar

StartChar: si_Tt.halant
Encoding: 197 -1 203
GlifName: si_T_t.halant
Width: 732
VWidth: -14
Flags: HW
LayerCount: 4
Back
Fore
SplineSet
353.442382812 334 m 1
 327.442382812 346 293.442382812 352 260.442382812 350 c 0
 190.369140625 345.8515625 117.5546875 302.787109375 116.442382812 218 c 0
 115.442382812 140.005859375 171.440018336 54.38494186 334.442382812 55 c 0
 547.44140625 55.8037109375 618.874023438 215.23046875 627.442382812 340 c 0
 690.442382812 332 l 0
 691.631835938 137.185546875 601.442382812 -57 341.442382812 -59 c 0
 148.44763624 -60.4845749736 38.5732421875 38.0029296875 35.4423828125 176 c 0
 32.1533203125 320.966796875 154.427734375 394.418945312 265.442382812 398 c 0
 327.442382812 400 367.442382812 379 367.442382812 379 c 1
 353.442382812 334 l 1
EndSplineSet
Refer: 577 -1 N 1 0 0 1 -20 0 2
Layer: 2
Layer: 3
LCarets2: 1 0
Ligature2: "si_halant_1 subtable" si_Tta si_Halant
EndChar

StartChar: si_TtI
Encoding: 198 -1 204
GlifName: si_T_tI_
Width: 725
VWidth: -14
Flags: HW
HStem: -59 103<219.35 450.494> 343 55<194.078 364.907> 592.443 53.6885<156.24 459.357> 801 76<222.121 467.213>
VStem: 46 71<129.757 266.127> 607 75<209.299 322 321 443.422>
LayerCount: 4
Back
Fore
SplineSet
366 329 m 1
 343 338 300 345 273 343 c 0
 202 338 115.5149564 300.478264259 117 198 c 0
 118.4140625 100.419921875 217 45 350 44 c 4
 544.997070312 42.5341796875 612.875976562 198.346679688 616 323 c 0
 682 322 l 0
 680.189453125 113.185546875 570 -59 330 -59 c 4
 147 -59 40.7906648242 50.1077332517 46 176 c 0
 52 321 165 394 276 398 c 0
 338 400 378 379 378 379 c 1
 366 329 l 1
EndSplineSet
Refer: 561 -1 N 1 0 0 1 0 0 2
Layer: 2
Layer: 3
LCarets2: 1 0
Ligature2: "si_abvs_1 subtable" si_Tta si_MatraI
Ligature2: "'abvs' Above Base Substitutions in Sinhala lookup 0-1" si_Tta si_MatraI
EndChar

StartChar: si_TtIi
Encoding: 199 -1 205
GlifName: si_T_tI_i
Width: 725
VWidth: -14
Flags: W
HStem: -59 103<219.35 450.494> 343 55<194.078 364.907> 592.443 53.6885<156.24 404.297> 801 76<222.122 469.686>
VStem: 46 71<129.757 266.127> 394 52.0371<643.319 730.04> 564 71<639.904 731.519> 607 75<209.299 322 321 443.422>
LayerCount: 4
Back
Fore
SplineSet
366 329 m 1xfd
 343 338 300 345 273 343 c 0
 202 338 115.5149564 300.478264259 117 198 c 0
 118.4140625 100.419921875 207 45 340 44 c 0
 534.997070312 42.5341796875 603.875976562 198.346679688 607 323 c 0
 682 322 l 0
 680.189453125 113.185546875 560 -59 320 -59 c 0
 137 -59 40.7906648242 50.1077332517 46 176 c 0
 52 321 165 394 276 398 c 0
 338 400 378 379 378 379 c 1
 366 329 l 1xfd
EndSplineSet
Refer: 562 -1 S 1 0 0 1 0 0 2
Layer: 2
Layer: 3
Ligature2: "si_abvs_2 subtable" si_Tta si_MatraIi
EndChar

StartChar: si_TtU
Encoding: 200 -1 206
GlifName: si_T_tU_
Width: 732
VWidth: -14
Flags: HW
LayerCount: 4
Back
Fore
SplineSet
212 -117 m 1
 228.772460938 -152 l 1
 228.76953125 -143.934570312 162.1875 -188.71875 162.190429688 -228 c 0
 162.1953125 -274.552734375 189.481445312 -288 248 -288 c 1
 615 -288 l 1
 615 167 l 5
 662 167 l 5
 668 -369 l 1
 668 -369 387.048828125 -371.4765625 176 -372.586914062 c 0
 96 -373 54.755859375 -323.6015625 54 -273 c 0
 52.37109375 -163.938476562 212 -117 212 -117 c 1
EndSplineSet
Refer: 0 3495 N 1 0 0 1 0 0 2
Layer: 2
Layer: 3
LCarets2: 1 0
Ligature2: "si_blws_1 subtable" si_Tta si_MatraU
EndChar

StartChar: si_DdU
Encoding: 215 -1 221
GlifName: si_D_dU_
Width: 824
VWidth: -14
Flags: HW
HStem: -370.587 85.3398<-418.305 -35>
VStem: -546 118.19<-273.371 -204.358> -35 63<-287 169>
LayerCount: 4
Back
Fore
SplineSet
257 -115 m 17
 283.772460938 -160 l 1
 283.76953125 -152.99609375 217.1875 -191.887695312 217.190429688 -226 c 0
 217.194335938 -272.552734375 241.30078125 -285.247070312 293 -285.247070312 c 1
 680 -287 l 9
 680 89 l 25
 737 149 l 25
 743 -367 l 17
 743 -367 397.004882812 -369.6796875 221 -370.586914062 c 0
 141 -371 99.755859375 -321.6015625 99 -271 c 0
 97.37109375 -161.938476562 257 -115 257 -115 c 17
EndSplineSet
Refer: 41 3497 N 1 0 0 1 -40 0 2
Layer: 2
Layer: 3
LCarets2: 1 0
Ligature2: "si_blws_1 subtable" si_Dda si_MatraU
EndChar

StartChar: si_TI
Encoding: 239 -1 245
GlifName: si_T_I_
Width: 1055
VWidth: -24
Flags: HW
HStem: 531 35<-202.188 -181.6> 703 97<-159.243 141.33>
LayerCount: 4
Back
SplineSet
453 449 m 21
 410 449 361.782226562 516.635742188 372 603 c 4
 388.934570312 746.133789062 509.024414062 844.5078125 670 848 c 4
 814.000976562 851.124023438 957.903320312 782.702148438 964 637 c 4
 966.764648438 570.931640625 939 511 854 487 c 13
 835 512 l 21
 858 532 875.19140625 561.625 873 603 c 4
 868.84375 681.477539062 765.885742188 754.201171875 648 751 c 4
 522.724609375 747.59765625 432.321289062 674.565429688 425 589 c 4
 419.583007812 525.689453125 457 494 470 474 c 13
 453 449 l 21
EndSplineSet
Refer: 9 3501 S 1 0 0 1 0 0 2
Fore
Refer: 574 -1 N 1 0 0 1 630 0 2
Refer: 9 3501 N 1 0 0 1 0 0 2
Layer: 2
Layer: 3
LCarets2: 1 0
Ligature2: "si_abvs_1 subtable" si_Ta si_MatraI
EndChar

StartChar: si_TIi
Encoding: 240 -1 246
GlifName: si_T_I_i
Width: 1055
VWidth: -24
Flags: HW
AnchorPoint: "si_MaI" 622 489 mark 0
LayerCount: 4
Back
Fore
SplineSet
317 427 m 1
 319.586914062 689.754882812 480.518547864 816.205147793 652 833 c 0
 786.000976562 846.124023438 920.791692129 777.673684576 916 642 c 0
 913.940185547 583.67767693 881.333333333 492 786 492 c 1
 676.076686501 492.000002228 633.558376437 552.792051998 636 619 c 0
 637.942019745 679.022037163 687.117908899 724.326048316 740 743 c 1
 760.968082501 734.068306627 781.218291421 724.317699544 800 714 c 1
 754 714 716.37918509 680.631318228 712 629 c 0
 710.627174559 594.718865376 732.490804277 555 775 555 c 0
 806.914762406 555 825.445623509 579.684590917 825 608 c 0
 823.291521193 716.558627094 717.885723905 746.201365225 610 736 c 0
 485.984375 724.2734375 365.77734375 641.188476562 364 427 c 1
 317 427 l 1
EndSplineSet
Refer: 9 3501 N 1 0 0 1 0 0 2
Layer: 2
Layer: 3
Ligature2: "si_abvs_2 subtable" si_Ta si_MatraIi
EndChar

StartChar: si_TU
Encoding: 241 -1 247
GlifName: si_T_U_
Width: 1085
VWidth: -24
Flags: HW
LayerCount: 4
Back
Fore
SplineSet
758 8 m 13
 788 -22 l 21
 775 -40 735.653320312 -70.2509765625 742 -124 c 4
 747.765148819 -172.824130769 798 -203 867 -202 c 4
 929.642578125 -201.091796875 975 -174 1010 -139 c 13
 1054 -228 l 4
 1001 -278 921.443359375 -295.733398438 857 -294 c 4
 765.02734375 -291.526367188 683.208984375 -256.041015625 683 -140 c 4
 682.877929688 -71.982421875 733.476258379 -13.4625335028 758 8 c 13
278 378 m 1x30
 290 401 293.788085938 421.989257812 293 440 c 0
 290.88671875 488.322265625 241.939453125 510.5859375 200 501 c 0
 168.6171875 493.826171875 143.75 469.586914062 140 425 c 1
 180 370 l 1
 166 346 142.997070312 333.926757812 121 335 c 0
 80 337 56 368 56 414 c 0
 56 494 122.979492188 562.083984375 220 558 c 0
 303.716796875 554.475585938 353.256835938 480.104492188 326 417 c 0
 310.53515625 381.197265625 326 405 313 388 c 1
 278 378 l 1x30
758 8 m 0xb0
 781.990234375 8.53125 802.926757812 13.7314453125 821 22.541015625 c 1
 906.891601562 64.4072265625 928.108269354 187.794867069 905 279 c 0
 872.266601562 408.19140625 734.73046875 467.030273438 595 462 c 0
 503.25390625 458.697265625 432 431.771484375 345 374 c 1
 328 362 339 367 325 355 c 1
 228 276 176 211 76 79 c 1
 76 79 41.1279296875 98.5439453125 47 107 c 0
 147 251 207 322 305 413 c 1
 312 419 321 420 328 425 c 1
 420 505 533.100585938 555.721679688 642 561 c 0
 837.309570312 570.465820312 990.44140625 449.986328125 1005 282 c 0
 1016.22873366 152.436080151 954.948242188 30.9873046875 851.549804688 -19 c 1
 819.727539062 -34.384765625 783.916015625 -43 745 -43 c 0
 758 8 l 0xb0
106 142 m 1
 121.827148438 148.801757812 135.977539062 157.05859375 149 157.575195312 c 0
 235.53125 161.009765625 244.237304688 64.6337890625 412 62 c 0
 543.998046875 59.927734375 621.387695312 124.006835938 620 205 c 0
 617.891601562 328.076171875 483.087890625 345.88671875 432 346 c 0
 350.086914062 346.181640625 292 328 259 310 c 1
 296 362 l 1
 309 366 372.00390625 395.240234375 444 394 c 0
 544.004882812 392.27734375 679 345 679 195 c 0
 679 89.8291015625 610 -44 412 -44 c 0x70
 282.072265625 -44 203.453125 7.7138671875 187 67.9970703125 c 0
 171.305664062 125.500976562 129.395507812 127.443359375 84 104 c 1
 106 142 l 1
EndSplineSet
Layer: 2
Layer: 3
LCarets2: 1 0
Ligature2: "si_blws_1 subtable" si_Ta si_MatraU
EndChar

StartChar: si_DI
Encoding: 255 -1 264
GlifName: si_D_I_
Width: 595
VWidth: -17
Flags: HW
HStem: 2 44<410.492 472.593 499.794 519> 451 35<204.066 210.4> 713 97<244.553 433.441>
VStem: 106 63<520.996 652.946> 291 97<-230.24 -107.365> 497 61<553.19 657.866>
LayerCount: 4
Back
Fore
SplineSet
207 451 m 17
 144 471 106.650390625 537.995117188 106 605 c 0
 105 708 213 812 354 810 c 0
 458 809 555.903320312 734.702148438 558 629 c 0
 559.311523438 562.887695312 513 513 478 499 c 9
 459 524 l 17
 482 544 498.944335938 563.61328125 497 605 c 4
 492.84375 693.477539062 390 711.96875 322 713 c 4
 227.005859375 714.44140625 168 656 169 591 c 0
 169.831054688 537.006835938 201 496 224 486 c 9
 207 451 l 17
EndSplineSet
Refer: 46 3503 N 1 0 0 1 0 0 2
Layer: 2
Layer: 3
Ligature2: "si_abvs_1 subtable" si_Da si_MatraI
Ligature2: "'abvs' Above Base Substitutions in Sinhala lookup 0-1" si_Da si_MatraI
EndChar

StartChar: si_DU
Encoding: 257 -1 266
GlifName: si_D_U_
Width: 595
VWidth: -17
Flags: HW
LayerCount: 4
Back
Fore
SplineSet
233 -117 m 1
 249.772460938 -152 l 1
 249.76953125 -143.934570312 183.1875 -188.71875 183.190429688 -228 c 0
 183.1953125 -274.552734375 210.481445312 -288 269 -288 c 1
 516 -288 l 1
 516 40 l 5
 563 40 l 5
 569 -369 l 1
 569 -369 408.048828125 -371.4765625 197 -372.586914062 c 0
 117 -373 75.755859375 -323.6015625 75 -273 c 0
 73.37109375 -163.938476562 233 -117 233 -117 c 1
152 199 m 0
 139.301757812 59.7265625 303.229492188 -21.3037109375 549 67 c 5
 563 40 l 5
 539 36 l 5
 551 38.3330078125 529 25.6669921875 493 12 c 5
 273.506835938 -100.266601562 38.8994140625 -4.337890625 41 165 c 0
 42.919921875 319.76171875 205.887695312 393.12109375 397 394 c 0
 456.002929688 394.271484375 499 385 499 385 c 1
 499 387.5 488.354492188 375.5 488 378 c 1
 491.599609375 475 373 506 318 498 c 1
 262 409 l 1
 216 412 195.556640625 452.114257812 205 488 c 0
 220 545 273 571 336 571 c 0
 408 571 506 528 520 444 c 0
 529.095703125 389.426757812 513 345 513 345 c 1
 513 343 l 1
 273.458007812 364.4921875 162.536132812 306.422851562 152 199 c 0
EndSplineSet
Layer: 2
Layer: 3
LCarets2: 1 0
Ligature2: "si_blws_1 subtable" si_Da si_MatraU
EndChar

StartChar: si_NU
Encoding: 279 -1 294
GlifName: si_N_U_
Width: 1020
VWidth: -24
Flags: HW
LayerCount: 4
Back
Fore
SplineSet
302 -117 m 5
 318.772460938 -152 l 5
 318.76953125 -143.934570312 252.1875 -188.71875 252.190429688 -228 c 4
 252.1953125 -274.552734375 279.481445312 -288 338 -288 c 5
 915 -288 l 5
 915 127 l 5
 962 127 l 5
 968 -369 l 5
 968 -369 477.048828125 -371.4765625 266 -372.586914062 c 4
 186 -373 144.755859375 -323.6015625 144 -273 c 4
 142.37109375 -163.938476562 302 -117 302 -117 c 5
EndSplineSet
Refer: 10 3505 N 1 0 0 1 0 0 2
Layer: 2
Layer: 3
LCarets2: 1 0
Ligature2: "si_blws_1 subtable" si_Na si_MatraU
EndChar

StartChar: si_PU
Encoding: 291 -1 310
GlifName: si_P_U_
Width: 776
VWidth: -24
Flags: HW
LayerCount: 4
Back
Fore
SplineSet
212 -117 m 5
 228.772460938 -152 l 5
 228.76953125 -143.934570312 162.1875 -188.71875 162.190429688 -228 c 4
 162.1953125 -274.552734375 189.481445312 -288 248 -288 c 5
 645 -288 l 5
 645 127 l 5
 692 127 l 5
 698 -369 l 5
 698 -369 387.048828125 -371.4765625 176 -372.586914062 c 4
 96 -373 54.755859375 -323.6015625 54 -273 c 4
 52.37109375 -163.938476562 212 -117 212 -117 c 5
EndSplineSet
Refer: 1 3508 N 1 0 0 1 0 0 2
Layer: 2
Layer: 3
LCarets2: 1 0
Ligature2: "si_blws_1 subtable" si_Pa si_MatraU
EndChar

StartChar: si_RI
Encoding: 355 -1 374
GlifName: si_R_I_
Width: 713
VWidth: -5
Flags: HW
LayerCount: 4
Back
Fore
SplineSet
233 523 m 25
 233 523 154.561076695 609.621554102 189 693 c 0
 227 785 327.964252509 820.7092831 413 819 c 0
 505.919858972 817.132240272 523 717 523 717 c 25
 519 689 l 25
 519 689 458.414000653 743.109718671 409 751 c 0
 335.468769244 762.74124923 277 719 255 682 c 24
 226 631 299 562 299 562 c 25
 233 523 l 25
EndSplineSet
Refer: 4 3515 N 1 0 0 1 0 0 2
Layer: 2
Layer: 3
LCarets2: 1 0
Ligature2: "si_abvs_1 subtable" si_Ra si_MatraI
EndChar

StartChar: si_V.halant
Encoding: 364 -1 383
GlifName: si_V_.halant
Width: 760
VWidth: -14
Flags: HW
LayerCount: 4
Back
Fore
SplineSet
396 274 m 1
 260.50390625 291.37890625 133.465820312 252.458984375 138 158 c 0
 141.069335938 94.0595703125 229.272460938 45.0927734375 375 46 c 0
 549 47.083984375 647 180.395507812 647 339 c 0
 710 331 l 0
 710 111.353515625 601.00390625 -66.76171875 365 -68 c 0
 183.8203125 -69.0419921875 59.146484375 8.0341796875 56 137 c 0
 52.244140625 299.32421875 249.439453125 329.377929688 364 322 c 1
 364 392 314 428 222 428 c 1
 196 347 l 1
 145 340 110.760742188 368.857421875 119 415 c 0
 129 471 187 490 234 490 c 0
 310 490 399.999023438 453 404 349 c 0
 405.383789062 313.026367188 396 274 396 274 c 1
EndSplineSet
Refer: 577 -1 N 1 0 0 1 0 0 2
Layer: 2
Layer: 3
LCarets2: 1 0
Ligature2: "si_halant_1 subtable" si_Va si_Halant
EndChar

StartChar: si_VIi
Encoding: 366 -1 384
GlifName: si_V_I_i
Width: 726
VWidth: -14
Flags: W
HStem: -58 100<211.852 445.682> 428 62<212 293.758> 592.443 53.6885<156.24 404.297> 801 76<222.122 469.686>
VStem: 46 83<107.912 216.652> 327 57<318.386 396.84> 394 52.0371<643.319 730.04> 564 71<639.904 731.519> 607 75<206.693 321 321 443.422>
LayerCount: 4
Back
Fore
SplineSet
376 262 m 1xfe80
 230 278 125 245 129 158 c 0
 131.939782368 94.0597335036 205 41 345 42 c 0
 514 43 607 173 607 326 c 0
 682 321 l 0
 682 107 571.002314781 -56.4236373831 335 -58 c 0
 179 -59.0419921875 49.3495196644 8.04349292099 46 137 c 0
 42 291 205 325 327 318 c 1
 337 378 304 428 212 428 c 1
 186 347 l 1
 135 340 100 369 109 415 c 0
 119 471 177 490 224 490 c 0
 300 490 380 453 384 349 c 0
 385.383592396 313.026597713 376 262 376 262 c 1xfe80
EndSplineSet
Refer: 562 -1 N 1 0 0 1 0 0 2
Layer: 2
Layer: 3
Ligature2: "si_abvs_2 subtable" si_Va si_MatraIi
LCarets2: 1 0
Ligature2: "'abvs' Above Base Substitutions in Sinhala lookup 0-2" si_Va si_MatraIi
EndChar

StartChar: si_SU
Encoding: 397 -1 414
GlifName: si_S_U_
Width: 915
VWidth: -24
Flags: HW
LayerCount: 4
Back
Fore
SplineSet
282 -117 m 5
 298.772460938 -152 l 5
 298.76953125 -143.934570312 232.1875 -188.71875 232.190429688 -228 c 4
 232.1953125 -274.552734375 259.481445312 -288 318 -288 c 5
 795 -288 l 1
 795 127 l 1
 842 127 l 1
 848 -369 l 1
 848 -369 457.048828125 -371.4765625 246 -372.586914062 c 4
 166 -373 124.755859375 -323.6015625 124 -273 c 4
 122.37109375 -163.938476562 282 -117 282 -117 c 5
EndSplineSet
Refer: 6 3523 N 1 0 0 1 0 0 2
Layer: 2
Layer: 3
LCarets2: 1 0
Ligature2: "si_blws_1 subtable" si_Sa si_MatraU
EndChar

StartChar: I_comp
Encoding: 569 -1 561
GlifName: I__comp
Width: 726
VWidth: -14
Flags: HW
HStem: 592.443 53.6885<156.24 459.357> 801 76<222.121 467.213>
VStem: 607 75<321 443.422>
LayerCount: 4
Back
Fore
SplineSet
63.1494140625 703.880859375 m 4
 63.1494140625 815 197.150390625 875.750976562 358 877 c 4
 555.375 878.533203125 640.248046875 776.428710938 621 677 c 4
 608.538085938 612.626953125 553.57421875 569.895507812 494 576 c 13
 460 629 l 21
 510 605 545.004882812 633.44140625 543 684 c 4
 540.580078125 745.025390625 478.841796875 801.115234375 322 801 c 4
 217.033203125 800.922851562 138.092773438 769.6875 133.40625 708.064453125 c 4
 131.170898438 678.671875 143.657226562 657.563476562 176 648.33984375 c 4
 220.94140625 635.522460938 290.30078125 649.194335938 361 646.131835938 c 4
 541.857421875 638.298828125 680 515.607421875 680 321 c 0
 618 321 l 1
 618 484.856445312 508.022460938 584.602539062 357 592.443359375 c 4
 281.883789062 596.34375 211.2109375 584.611328125 155 595.53515625 c 4
 91.021484375 607.96875 63.1494140625 650.7890625 63.1494140625 703.880859375 c 4
EndSplineSet
Layer: 2
Layer: 3
EndChar

StartChar: Ii_comp
Encoding: 570 -1 562
GlifName: I_i_comp
Width: 726
VWidth: -14
Flags: W
HStem: 592.443 53.6885<156.24 404.297> 801 76<222.122 469.686>
VStem: 394 52.0371<643.319 730.04> 564 71<639.904 731.519> 607 75<321 443.422>
LayerCount: 4
Back
Fore
SplineSet
543 742 m 5xf0
 480.828125 758.302734375 446.037109375 721.200195312 446.037109375 687 c 0
 446.037109375 653.5625 471.477783521 631.284572707 507 629.793945312 c 0
 533.105460132 628.698475551 564.620117188 644.154296875 564 684 c 0xf0
 563.049632792 745.065957169 478.841796875 801.115234375 332 801 c 4
 227.033207095 800.917627113 148.092773438 769.6875 143.40625 708.064453125 c 0
 141.170898438 678.671875 153.657226562 657.563476562 186 648.33984375 c 0
 230.94140625 635.522460938 300.30078125 649.194335938 371 646.131835938 c 0
 551.857421875 638.298828125 682 515.607421875 682 321 c 0
 607 321 l 1xe8
 607 484.856445312 518.022460938 584.602539062 367 592.443359375 c 0
 291.883789062 596.34375 221.2109375 584.611328125 165 595.53515625 c 0
 101.021484375 607.96875 73.1494140625 650.7890625 73.1494140625 703.880859375 c 0
 73.1494140625 815 207.15234375 875.526367188 368 877 c 0
 535.375 878.533203125 634.248046875 806.428710938 635 697 c 0
 635.450195312 631.43359375 578.60546875 575.654296875 505 579 c 0
 483 580 393.407908266 591.726646891 394 684.200195312 c 0
 394.398508529 746.439702462 454.563476562 797.881835938 524 776 c 13
 543 742 l 5xf0
EndSplineSet
Layer: 2
Layer: 3
EndChar

StartChar: si_MatraI.alt
Encoding: 571 -1 563
GlifName: si_M_atraI_.alt
Width: 865
VWidth: -24
Flags: HW
LayerCount: 4
Back
Fore
SplineSet
273 520 m 21x99
 200 530 160.888671875 585.918945312 172 652 c 4
 191 765 320.989257812 808.053710938 462 809 c 4
 611 810 741.903320312 764.702148438 754 652 c 4
 761.056640625 586.251953125 713 525 668 521 c 13
 655 557 l 21
 688 567 711.614257812 594.228515625 703 632 c 4
 691.770507812 681.23828125 581 716.9765625 463 717 c 4
 337.995117188 717.025390625 236 687 227 632 c 4
 218.279296875 578.708984375 259 562 282 552 c 13
 273 520 l 21x99
EndSplineSet
Layer: 2
Layer: 3
EndChar

StartChar: si_MatraIi.alt
Encoding: 572 -1 564
GlifName: si_M_atraI_i.alt
Width: 776
VWidth: -24
Flags: HW
LayerCount: 4
Back
Fore
SplineSet
214 520 m 17
 151 540 107.166992188 577.24609375 113 644 c 0
 122 747 259.990234375 790.13671875 401 789 c 0
 525 788 682.063476562 731.920898438 682 625 c 0
 681.955078125 549.627929688 638.186523438 507.028320312 582 505 c 0
 526.177734375 502.984375 465.423828125 529.80859375 461 586 c 0
 455.676757812 653.612304688 537.657226562 695.563476562 545 692 c 1
 601 682 l 1
 587.119140625 668.837890625 544 630.181640625 544 586 c 0
 544 569 558 549 583 549 c 24
 602 549 622.310546875 561.890625 621 586 c 0
 617.19140625 656.051757812 461 695.96875 393 697 c 0
 298.005859375 698.44140625 185 695 176 630 c 0
 168.59375 576.510742188 208 565 231 555 c 9
 214 520 l 17
EndSplineSet
Layer: 2
Layer: 3
EndChar

StartChar: si_MatraI.alt1
Encoding: 575 -1 574
GlifName: si_M_atraI_.alt1
Width: 0
VWidth: -24
Flags: HW
AnchorPoint: "si_MaI" 0 484 mark 0
LayerCount: 4
Back
Fore
SplineSet
-305 422 m 17
 -302.413085938 684.754882812 -141.481445312 811.205078125 30 828 c 0
 164.000976562 841.124023438 297.903320312 772.702148438 294 637 c 0
 292.098632812 570.901367188 259 491 174 467 c 9
 155 492 l 17
 178 512 204.944335938 561.612304688 203 603 c 0
 198.84375 691.477539062 95.8857421875 741.201171875 -12 731 c 0
 -136.015625 719.2734375 -256.22265625 636.188476562 -258 422 c 9
 -305 422 l 17
EndSplineSet
Layer: 2
Layer: 3
EndChar

StartChar: si_MatraIi.alt2
Encoding: 576 -1 575
GlifName: si_M_atraI_i.alt2
Width: 0
VWidth: -24
Flags: HW
AnchorPoint: "si_MaI" 0 484 mark 0
LayerCount: 4
Back
Fore
SplineSet
-305 422 m 17
 -302.413085938 684.754882812 -141.481445312 811.205078125 30 828 c 0
 164.000976562 841.124023438 297.903320312 772.702148438 294 637 c 0
 292.098632812 570.901367188 259 491 174 467 c 9
 155 492 l 17
 178 512 204.944335938 561.612304688 203 603 c 0
 198.84375 691.477539062 95.8857421875 741.201171875 -12 731 c 0
 -136.015625 719.2734375 -256.22265625 636.188476562 -258 422 c 9
 -305 422 l 17
EndSplineSet
Layer: 2
Layer: 3
EndChar

StartChar: U_comp
Encoding: 577 -1 576
Width: 0
VWidth: -24
Flags: HW
LayerCount: 4
Back
Fore
SplineSet
1 8 m 13
 31 -22 l 21
 18 -40 -21.3466796875 -70.2509765625 -15 -124 c 4
 -9.234375 -172.82421875 41 -203 110 -202 c 4
 172.642578125 -201.091796875 218 -174 253 -139 c 13
 297 -228 l 4
 244 -278 164.443359375 -295.733398438 100 -294 c 4
 8.02734375 -291.526367188 -73.791015625 -256.041015625 -74 -140 c 4
 -74.1220703125 -71.982421875 -23.5234375 -13.462890625 1 8 c 13
EndSplineSet
Layer: 2
Layer: 3
EndChar

StartChar: al_comp
Encoding: 578 -1 577
Width: 760
VWidth: -14
Flags: HW
LayerCount: 4
Back
Fore
SplineSet
539 640 m 5
 574.268554688 626.919921875 596.11328125 661.811523438 593 692 c 4
 584.83984375 771.116210938 478.083984375 819.1640625 375 817 c 4
 295.946289062 815.340820312 253 794 253 794 c 21
 279.80859375 751.53125 284.022460938 665.860351562 205 636 c 13
 171 650 l 21
 244.673828125 679.870117188 229.099609375 776.052734375 192 792 c 5
 214 783.063476562 l 5
 143 744 l 5
 120 790 l 13
 120 790 229.981445312 874.889648438 387 878 c 4
 556.05078125 881.348632812 670.799804688 807.418945312 671 704 c 4
 671.169921875 616.013671875 607.700195312 591 580 591 c 5
 573 569 l 5
 539 640 l 5
647 339 m 5
 647 545.866210938 525.30859375 625.688476562 332 623 c 4
 214.836914062 621.370117188 162.155273438 578 159 578 c 5
 137 628 l 5
 177.618164062 655 214.690429688 683.690429688 348 683 c 4
 541.403320312 682.025390625 710 580.453125 710 331 c 4
 647 339 l 5
EndSplineSet
Layer: 2
Layer: 3
EndChar
